<?xml version="1.0" encoding="utf-8"?>
<!-- Svg Vector Icons : http://www.onlinewebfonts.com/icon -->
<!DOCTYPE svg PUBLIC "-//W3C//DTD SVG 1.1//EN" "http://www.w3.org/Graphics/SVG/1.1/DTD/svg11.dtd">
<svg version="1.1" xmlns="http://www.w3.org/2000/svg" xmlns:xlink="http://www.w3.org/1999/xlink" x="0px" y="0px" viewBox="0 0 1000 1000" enable-background="new 0 0 1000 1000" xml:space="preserve">
<metadata> Svg Vector Icons : http://www.onlinewebfonts.com/icon </metadata>
<g><g transform="translate(0.000000,511.000000) scale(0.100000,-0.100000)"><path d="M2067.1,4977.8c-52.7-18.5-137.1-63.3-187.2-97.6c-145-97.5-1315.5-1231.1-1394.6-1349.8c-116-168.7-131.8-311.1-121.3-991.3c7.9-590.5,10.5-624.8,71.2-738.2c34.3-65.9,79.1-139.7,100.2-163.5c34.3-39.5,31.6-52.7-26.4-131.8c-137.1-179.3-155.6-300.5-145-959.6c7.9-574.7,10.5-609,71.2-722.4c34.3-65.9,79.1-139.7,102.8-163.4c36.9-42.2,36.9-52.7,0-92.3c-23.7-26.4-68.5-100.2-102.8-166.1c-60.6-113.4-63.3-147.7-71.2-738.2c-10.6-685.4,5.3-819.9,123.9-1009.7l76.5-118.6L488-2577.9c-118.6-179.2-134.5-313.7-123.9-999.1c7.9-614.2,7.9-619.5,79.1-754c39.5-73.8,131.8-189.8,205.6-255.7c245.2-218.8-113.4-203,4349.9-203c4463.2,0,4104.7-15.8,4349.9,203c73.8,65.9,166.1,181.9,205.6,255.7c71.2,134.5,71.2,139.7,79.1,754c10.6,682.8-5.3,822.5-123.9,1007.1l-73.8,116l60.7,89.6c134.4,192.5,147.6,287.3,137.1,993.9c-7.9,627.4-10.5,659.1-71.2,772.4c-34.3,65.9-79.1,139.7-102.8,166.1c-36.9,39.6-36.9,50.1,0,92.3c23.7,23.7,68.5,97.6,102.8,163.4c60.7,113.4,63.3,147.6,71.2,698.6c10.6,645.9-7.9,783-123.9,959.6l-79.1,116l63.3,81.7c126.5,168.7,145,287.4,145,933.2s-13.2,740.8-131.8,928C9388.2,3725.5,8217.7,4830.1,8038.4,4925l-150.3,79.1l-2860.4,5.3C2663,5012,2148.9,5006.8,2067.1,4977.8z M9008.5,3282.6l76.5-84.4v-582.6V2033l-76.5-76.5l-76.5-76.5H4998.7H1065.4l-76.5,76.5l-76.5,76.5v580c0,551,2.6,582.6,55.4,648.5c31.6,39.5,81.7,84.4,113.4,94.9c29,13.2,1808.5,21.1,3951.8,18.5l3899.1-5.3L9008.5,3282.6z M8926.8,1286.9c152.9-79.1,158.2-105.4,158.2-693.3V55.8l-76.5-76.5l-76.5-76.4H4998.7H1065.4l-76.5,76.4l-76.5,76.5v537.8c0,453.4,7.9,545.7,42.2,598.4c97.5,137.1-81.7,131.8,4052,134.5C8365.3,1326.5,8860.9,1321.2,8926.8,1286.9z M9008.5-753.6L9085-830v-585.3v-585.3l-89.6-89.7l-89.6-89.6h-3907h-3907l-89.6,89.6l-89.6,89.7v585.3V-830l76.5,76.4l76.5,76.4h3933.4h3933.4L9008.5-753.6z M9008.5-2833.6l76.5-84.4v-582.6v-582.6l-76.5-76.4l-76.5-76.5H4998.7H1065.4l-76.5,76.5l-76.5,76.4v580c0,551,2.6,582.6,55.4,648.5c31.6,39.5,81.7,84.4,113.4,94.9c29,13.2,1808.5,21.1,3951.8,18.4l3899.1-5.3L9008.5-2833.6z"/><path d="M1510.9,2879.3c-60.6-36.9-123.9-163.4-123.9-255.7c0-105.5,87-208.3,205.6-242.5c58-15.8,432.4-26.4,901.6-26.4s843.6,10.5,901.6,26.4c118.6,34.3,205.6,137.1,205.6,242.5c0,94.9-63.3,221.4-129.2,258.4C3403.8,2918.8,1574.2,2916.2,1510.9,2879.3z"/><path d="M8159.7,2805.5c-60.7-60.6-76.5-100.2-76.5-187.2s15.8-126.5,76.5-187.2c60.6-60.6,100.2-76.5,187.2-76.5c234.6,0,350.6,263.6,195.1,445.5c-58,68.5-87,81.7-187.2,81.7C8259.8,2881.9,8222.9,2866.1,8159.7,2805.5z"/><path d="M1510.9,822.9C1450.3,786,1387,659.5,1387,567.2c0-105.4,87-208.3,205.6-242.5c58-15.8,437.6-26.4,922.7-26.4c883.2,0,954.3,7.9,1044,134.4c79.1,113.4,29,329.5-87,392.8C3403.8,862.5,1574.2,859.8,1510.9,822.9z"/><path d="M7339.7,754.4c-87-94.9-105.4-181.9-63.2-284.7c116-276.8,516.7-203,516.7,92.3c0,158.2-108.1,263.6-268.9,263.6C7432,825.6,7395.1,809.8,7339.7,754.4z"/><path d="M8159.7,749.1c-60.7-60.6-76.5-100.2-76.5-187.2s15.8-126.5,76.5-187.2C8331,206.1,8610.5,322,8610.5,562c0,87-15.8,126.5-76.5,187.2c-60.7,60.6-100.2,76.5-187.2,76.5C8259.8,825.6,8220.3,809.8,8159.7,749.1z"/><path d="M1476.6-1214.9c-118.6-118.6-123.9-242.5-13.2-363.8l76.5-87h954.3h954.4l76.4,87c110.7,121.3,105.5,245.2-13.2,363.8l-89.6,89.6h-928h-928L1476.6-1214.9z"/><path d="M7374-1193.8c-179.3-126.5-142.4-416.5,63.3-485.1c181.9-60.6,355.9,71.2,355.9,268.9C7793.2-1204.4,7542.8-1075.2,7374-1193.8z"/><path d="M8159.7-1228.1c-195.1-197.7,15.8-551,271.5-453.4c192.5,73.8,245.2,308.4,102.8,453.4c-60.7,60.6-100.2,76.5-187.2,76.5C8259.8-1151.7,8220.3-1167.5,8159.7-1228.1z"/><path d="M1484.5-3260.7c-84.4-68.6-116-208.3-71.2-319c65.9-158.2,55.4-155.5,1086.2-155.5h941.2l68.5,60.6c52.7,42.2,73.8,92.3,84.4,181.9c13.2,110.7,7.9,131.8-65.9,205.6l-79.1,79.1h-949.1C1584.7-3208,1550.4-3210.6,1484.5-3260.7z"/><path d="M8251.9-3234.3c-94.9-36.9-168.7-155.6-168.7-268.9c0-147.6,113.3-258.3,263.6-258.3c287.4,0,374.3,390.2,118.6,514.1C8367.9-3202.7,8333.7-3200.1,8251.9-3234.3z"/></g></g>
</svg>