<?xml version="1.0" encoding="utf-8"?>
<!-- Generator: Adobe Illustrator 22.1.0, SVG Export Plug-In . SVG Version: 6.00 Build 0)  -->
<svg version="1.1" id="Layer_1" xmlns="http://www.w3.org/2000/svg" xmlns:xlink="http://www.w3.org/1999/xlink" x="0px" y="0px"
	 width="250.2px" height="250.2px" viewBox="0 0 250.2 250.2" enable-background="new 0 0 250.2 250.2" xml:space="preserve">
<g>
	<path fill="#FFFFFF" d="M125.1,0.44C56.25,0.44,0.44,56.25,0.44,125.1c0,10.12,1.07,19.99,3.48,29.38
		c0.79,3.06,1.7,10.96,9.71,6.73c0.74-0.39,1.58-0.79,2.46-1.2c1.68,1.48,7.53,9.93,8.15,17.97c-3.64,1.71-6.37,3.07-6.72,3.49
		c-1.14,1.37-3.2,1.6,1.53,9.2c21.98,35.47,61.25,59.1,106.04,59.1c44.79,0,84.07-23.63,106.04-59.1c4.73-7.6,2.68-7.83,1.53-9.2
		c-0.34-0.41-3.09-1.79-6.74-3.5c0.61-8.01,6.77-16.8,8.11-17.99c0.9,0.42,1.77,0.83,2.52,1.23c8.01,4.23,8.92-3.66,9.71-6.73
		c2.41-9.39,3.48-19.26,3.48-29.38C249.76,56.25,193.95,0.44,125.1,0.44z"/>
	<path d="M125.1,0.1c-68.92,0-125,56.07-125,125c0,10.52,1.17,20.43,3.49,29.46c0.07,0.27,0.14,0.59,0.22,0.93
		c0.52,2.27,1.31,5.71,3.86,6.88c1.59,0.73,3.66,0.44,6.13-0.86c0.68-0.36,1.43-0.73,2.23-1.1c1.83,1.8,7.18,9.77,7.86,17.36
		c-3.59,1.69-6.26,3.04-6.62,3.48c-0.14,0.17-0.29,0.31-0.44,0.46c-1.41,1.37-2.04,2.75,1.94,9.14
		c22.99,37.11,62.74,59.26,106.34,59.26c43.6,0,83.35-22.15,106.33-59.26c3.98-6.39,3.35-7.77,1.94-9.15
		c-0.15-0.15-0.3-0.29-0.44-0.46c-0.36-0.44-3.04-1.79-6.65-3.49c0.67-7.46,6.18-15.7,7.82-17.37c0.83,0.38,1.59,0.76,2.29,1.13
		c2.47,1.3,4.53,1.59,6.13,0.86c2.55-1.17,3.34-4.61,3.86-6.88c0.08-0.34,0.15-0.65,0.22-0.93c2.32-9.03,3.49-18.94,3.49-29.46
		C250.1,56.17,194.02,0.1,125.1,0.1z M16.69,160.1c1.02-0.46,2.12-0.93,3.25-1.4c1.52,1.59,7.26,9.63,7.83,17.27
		c-1.12,0.51-2.2,1.01-3.23,1.49C23.78,170.02,18.72,162.27,16.69,160.1z M227.34,188.31c3.92-6.29,3.01-7.34,1.97-8.35
		c1.78,0.88,2.9,1.49,3.1,1.72c0.15,0.18,0.32,0.35,0.49,0.51c1,0.97,1.94,1.89-2.05,8.29c-22.86,36.9-62.39,58.93-105.75,58.93
		c-43.35,0-82.89-22.03-105.75-58.93c-3.98-6.4-3.04-7.32-2.04-8.29c0.17-0.16,0.34-0.33,0.49-0.51c0.2-0.23,1.33-0.85,3.1-1.72
		c-1.03,1.01-1.95,2.06,1.97,8.35c21.19,34.2,59.05,56.98,102.24,56.98C168.29,245.28,206.15,222.5,227.34,188.31z M208.22,143.63
		c2.42-0.02,5.57,0.71,6.37,0.91c0,0.01,0,0.02-0.01,0.03c-0.32,1.68-2.27,6.15-3.7,6.45l-1.21-0.43c-0.88-0.78-0.81-2.66-0.77-3.91
		c0.01-0.26,0.02-0.5,0.02-0.7C208.93,145.37,208.76,144.3,208.22,143.63z M41.29,146.68c0.05,1.25,0.12,3.13-0.77,3.91l-1.21,0.43
		c-1.43-0.29-3.38-4.77-3.7-6.45c0-0.01,0-0.02-0.01-0.03c0.79-0.2,3.96-0.93,6.38-0.91c-0.55,0.68-0.71,1.74-0.71,2.34
		C41.27,146.17,41.28,146.41,41.29,146.68z M47.89,76c8.81-7.73,18.68,1.88,19.23,3.64c6.18-9.49,21.16-8.46,23.9-6.86
		c20.36-24.48,40.03,0,40.48,5.49c19.67-16.24,27.67,2.4,27.79,5.72c6.4-3.09,11.55,2.63,11.78,5.15
		c13.95-3.43,19.67,6.17,21.5,9.72c11.32-0.57,15.1,6.97,15.5,8.52c0.12-0.02,0.27-0.03,0.41-0.05c-8.27,1.66-16.2,5.35-17.73,5.71
		c-4.79-1.95-7.67-5.13-12.24-4.53c0.12-2.81-1.34-5.33-4.05-6.93c-2.64-1.56-5.85-1.8-7.92-0.62c-9.2-7.99-19.31-6.55-23.77-3.68
		c-4.5-4.73-9.88-4.54-12.71-3.99c-3.58,0.69-6.86,2.66-7.87,4.66c-8.92-4.11-15.52-2.49-18.68-1.14c-3,1.28-5.32,3.34-6.35,5.6
		c-1.31-2.06-3.61-3.02-5.4-3.47c-3.48-0.87-7.79-0.44-10.13,0.98c-1.52-5.01-4.26-8.3-8.15-9.79c-4.45-1.69-9.54-0.6-12.81,1.3
		c-0.51-3.47-2.59-6.29-5.88-7.96c-3.43-1.74-7.8-1.96-10.83-0.66C45.15,80.47,46.48,78.21,47.89,76z M54.45,84.08
		c3.25,1.65,5.23,4.47,5.58,7.95l0.06,0.55l0.47-0.3c3-1.91,8.24-3.2,12.66-1.51c3.79,1.45,6.44,4.74,7.87,9.78l0.14,0.48l0.4-0.29
		c2.07-1.52,6.44-2.02,9.96-1.14c1.82,0.46,4.23,1.48,5.31,3.75l0.37,0.77l0.27-0.81c0.78-2.35,3.12-4.54,6.25-5.88
		c3.09-1.32,9.6-2.91,18.44,1.28l0.34,0.16l0.13-0.35c0.62-1.65,3.6-3.81,7.51-4.57c2.73-0.53,7.96-0.71,12.27,3.99l0.2,0.22
		l0.25-0.17c4.19-2.88,14.23-4.44,23.36,3.64l0.2,0.17l0.22-0.14c1.85-1.19,4.9-0.99,7.42,0.5c2.53,1.49,3.87,3.84,3.71,6.44
		c-1.13,0.23-2.38,0.7-3.77,1.46c-7.55,4.12-34.54,21.5-47.58,23.1c-13.04,1.6-24.7-27.22-45.29-15.78c-3.92,2.18-7.58,4.34-11,6.46
		c-0.72-2.06-3.62-3.45-5.37-4.11c-3.27-1.24-7.67-1.92-9.67-1.06c-1-6.06-4.55-9.11-7.4-10.61c-4.58-2.41-9.7-2.26-12.36-1.36
		c1.65-8.07,4.39-15.74,8.02-22.89C46.24,82.16,50.87,82.27,54.45,84.08z M47.43,108.67c2.78,1.46,6.27,4.49,7.11,10.59l0.08,0.57
		l0.46-0.34c1.3-0.95,5.74-0.54,9.49,0.88c2.83,1.07,4.64,2.46,5.02,3.83c-12.88,8.02-22.05,15.2-26.68,18.79
		c-2.57-0.28-6.46,0.62-7.44,0.87c-1.32-7.05-1.94-13.04-1.94-18.76c0-6.02,0.6-11.91,1.72-17.61
		C37.69,106.48,42.99,106.33,47.43,108.67z M42.92,143.75c0.66-0.25,1.73,0.42,3.02,1.88c5.01,5.69,9.18,17.17,9.29,22.88
		c0.04,2.11-0.38,2.6-0.63,2.71c-0.68,0.27-2.02-1.06-2.73-1.76c-1.07-7.59-4.92-17.02-9.86-22.06c0-0.26-0.01-0.51-0.02-0.74
		c-0.01-0.25-0.02-0.48-0.02-0.68C41.96,145.2,42.26,144,42.92,143.75z M54.14,171.9c-1.54,1.82-4.2,3.78-5.02,4.37
		c-0.2-0.29-0.41-0.57-0.61-0.87c-0.03-0.04-3.03-3.59-2.06-7c1.6-1.07,3.73,0.34,4.76,1.37l0.1,0.1
		C52.08,170.65,53.17,171.72,54.14,171.9z M42.38,170.4c1.38-0.61,2.52-1.15,3.25-1.53c-0.57,3.52,2.22,6.83,2.32,6.94
		c17.16,26.05,46,41.59,77.14,41.59c31.14,0,59.98-15.55,77.11-41.56c0.13-0.15,2.92-3.46,2.35-6.98c0.73,0.38,1.87,0.92,3.25,1.53
		c1.03,3.77-2.26,7.6-2.26,7.6c-17.22,26.14-46.82,43.38-80.46,43.38c-33.64,0-63.24-17.25-80.46-43.38
		C44.64,178,41.36,174.17,42.38,170.4z M196.06,171.9c0.97-0.18,2.06-1.25,2.83-2.03l0.1-0.1c1.03-1.03,3.16-2.44,4.76-1.37
		c0.97,3.4-2.03,6.96-2.09,7.03c-0.19,0.28-0.4,0.55-0.59,0.83C200.25,175.68,197.59,173.72,196.06,171.9z M198.34,169.45
		c-0.71,0.71-2.08,2.06-2.73,1.76c-0.25-0.11-0.68-0.6-0.63-2.71c0.11-5.71,4.28-17.19,9.29-22.88c1.28-1.46,2.35-2.13,3.02-1.88
		c0.66,0.25,0.96,1.45,0.96,2.22c0,0.2-0.01,0.43-0.02,0.68c-0.01,0.23-0.02,0.48-0.02,0.74
		C203.25,152.44,199.41,161.86,198.34,169.45z M215.26,144.7c1.42-7.42,2.09-13.65,2.09-19.6c0-50.87-41.38-92.25-92.25-92.25
		S32.85,74.23,32.85,125.1c0,5.96,0.66,12.19,2.09,19.6c0.21,1.1,1.71,5.24,3.44,6.59c-0.74,0.24-1.98,0.65-3.51,1.17
		c-1.74-0.89-3.53-5.49-3.8-6.91c-1.27-6.62-2.18-13.43-2.18-20.45c0-53.14,43.08-96.22,96.22-96.22
		c53.14,0,96.22,43.08,96.22,96.22c0,7.02-0.9,13.83-2.18,20.45c-0.27,1.42-2.06,6.02-3.81,6.91c-1.53-0.52-2.77-0.93-3.51-1.17
		C213.55,149.94,215.05,145.8,215.26,144.7z M225.63,177.44c-1.01-0.47-2.09-0.97-3.2-1.48c0.57-7.74,6.29-15.86,7.67-17.33
		c1.17,0.48,2.31,0.97,3.36,1.45C231.58,162.16,226.39,170.14,225.63,177.44z M245.94,154.39c-0.07,0.28-0.15,0.6-0.22,0.95
		c-0.49,2.14-1.23,5.38-3.47,6.41c-1.39,0.64-3.25,0.35-5.52-0.85c-0.1-0.05-0.22-0.11-0.33-0.16c4.46,0.47,4.91-4.88,5.53-7.31
		c2.32-9.05,3.35-18.57,3.35-28.33c0-66.37-53.81-120.18-120.18-120.18C58.72,4.91,4.91,58.72,4.91,125.1
		c0,9.76,1.04,19.27,3.36,28.33c0.64,2.48,0.87,8.03,5.51,7.32c-0.1,0.05-0.21,0.1-0.31,0.16c-2.27,1.2-4.13,1.48-5.52,0.85
		c-2.24-1.03-2.98-4.27-3.47-6.41c-0.08-0.35-0.15-0.66-0.22-0.94c-2.3-8.97-3.47-18.83-3.47-29.29
		C0.79,56.55,56.55,0.79,125.1,0.79c68.55,0,124.31,55.77,124.31,124.31C249.41,135.56,248.24,145.42,245.94,154.39z"/>
	<path d="M216.38,112.02l-0.04-0.18l-82.59-36.14l-0.13-2.64l78.94,22.92l-0.26-0.79c-0.96-2.93-2.28-6.66-3.11-7.76l-0.07-0.1
		l-75.66-17.72l-0.71-14.92l0-0.11l-6.73-8.29l0.14,7.39h-2.13l0.14-7.39l-6.66,8.21l-0.07,0.09l-0.43,9.18l-63.87,3.99
		c-1.61,1.5-5.84,7.92-6.09,8.54l69.81-9.35l-0.13,2.68l-75.54,17.7c-0.71,1.3-2.61,5.77-3.57,8.71l78.95-22.95l-0.12,2.64
		l-82.43,36.07c-0.64,2.53-1.06,9.34-1.01,10.38l83.26-42.7l-0.16,3.4l-82.3,53.39c0.1,0.72,1.14,7.4,1.37,8.09l2.1-0.29
		l78.63-56.88l-3.41,72.82l9.51-1.6l1-51.84h4.19l0.99,50.64l0.01,0.5l9.27-3.83l-3.16-66.68l78.05,56.5l2.68,0.81
		c0.25-0.74,1.25-6.66,1.44-8.18c-0.23-0.26-51.65-33.56-82.38-53.45l-0.16-3.4l82.78,42.46l0.48,0.25l0.02-0.54
		C217.25,120.72,216.91,114.63,216.38,112.02z"/>
	<path fill="#FFFFFF" d="M135.56,34.22c1.27,0.12,2.8,0.27,4.3,0.55l-13.13,10.45v-1.74l7.78-9.37
		C134.82,34.15,135.18,34.18,135.56,34.22z M148.65,36.69l-21.04,11.57l0.87,0.98l26.42-10.62c-0.34-0.11-0.71-0.23-1.1-0.36
		C151.92,37.65,149.59,36.89,148.65,36.69z M132.75,54.53l-1.15-1.42l32.99-10.55c1.33,0.63,4.6,2.39,6.19,3.29L132.75,54.53z
		 M187.83,58.51c-1.46-1.38-5.01-4.55-6.27-5.45l-48.62,4.71l0.04,2.53L187.83,58.51z M201.97,75.43l-68.62-9.19l-0.1-1.79
		l63.65,3.97C198.27,69.78,201.03,73.9,201.97,75.43z M208.72,87.95L133.5,70.33l0.1,2.02l77.91,22.62
		C209.92,90.15,209.1,88.51,208.72,87.95z M133.87,78.65l-0.06-2.17l81.94,35.85c0.43,2.27,0.73,6.98,0.78,8.71L133.87,78.65z
		 M213.41,143.59c0.39,0.08,0.66,0.14,0.86,0.19c0.2,0.05,0.33,0.08,0.45,0.09c0.27-1.19,0.91-5.52,1.13-7.19
		c-3.29-2.22-74.69-48.44-81.7-52.98l0.06,2.55L213.41,143.59z M123.5,43.51v1.74l-13.16-10.48c1.5-0.29,3.03-0.43,4.3-0.55
		c0.38-0.04,0.74-0.07,1.05-0.1L123.5,43.51z M101.54,36.69c-0.94,0.21-3.26,0.96-5.15,1.58c-0.39,0.13-0.76,0.25-1.1,0.36
		l26.42,10.62l0.87-0.98L101.54,36.69z M79.42,45.85c1.59-0.9,4.87-2.67,6.19-3.29l32.99,10.55l-1.15,1.42L79.42,45.85z
		 M117.21,60.3l0.04-2.53l-48.62-4.71c-1.27,0.9-4.81,4.07-6.27,5.45L117.21,60.3z M53.31,68.42l63.65-3.97l-0.1,1.79l-68.62,9.19
		C49.18,73.89,51.94,69.76,53.31,68.42z M41.48,87.95c-0.38,0.56-1.19,2.21-2.79,7.05l77.91-22.65l0.1-2.02L41.48,87.95z
		 M116.39,76.48l-0.06,2.17l-82.67,42.4c0.01-1.76,0.27-6.46,0.79-8.72L116.39,76.48z M35.92,143.78c0.21-0.05,0.48-0.11,0.87-0.19
		l79.2-57.32l0.06-2.55L34.35,136.7c0.36,2.53,0.91,6.14,1.12,7.17C35.59,143.86,35.72,143.83,35.92,143.78z M125.67,33.95h-1.15
		v19.38h1.15V33.95z M123.19,61.03l0.26-12.76l-5.33,6.57l-4.89,104.33l8.11-1.37l1.83-94.8h-4.13v-1.97H123.19z M132.08,54.84
		l-5.33-6.57l0.26,12.76h4.15V63h-4.12l1.83,93.67l7.89-3.26L132.08,54.84z M54.94,161.24c4.49-2.25,12.63-5.43,22.24-5.43
		c10.52,0,26.87,6.52,33.51,6.52c6.63,0,20.36-2.75,27.33-7.09c8.56-5.33,22.06-4.41,32.59,0c8.46,3.54,17.72,0.46,20.47-0.69
		c1.5-0.62,4.97-2.29,8.68-4.08c1.24-2.27,2.87-4.67,4.18-5.73c-1.57,0.66-10.12,5-12.86,6.15c-2.75,1.15-12.01,4.23-20.47,0.69
		c-10.54-4.41-24.03-5.33-32.59,0c-6.98,4.35-20.7,7.09-27.33,7.09c-6.63,0-22.99-6.52-33.51-6.52c-10.52,0-19.33,3.77-23.33,5.95
		C54.17,158.64,54.88,160.89,54.94,161.24 M197.92,181.2c-8.68-3.11-14.55-6.29-21.81-6.29c-10.64,0-14.59,7.22-15.84,10.09
		c-16.45-3.17-24.72-10.09-35.16-10.09c-10.64,0-14.59,7.22-15.84,10.09c-16.32-3.19-24.76-10.09-35.16-10.09
		c-7.98,0-12.29,4.18-14.47,7.47l-8.06-4.73c2.06,3.32,7.89,11.55,14.07,11.55c4.31,0,7.32-2.29,6.52-5.49
		c-0.47-1.88-2.06-2.97-6.75-1.37c-1.51,0.51-0.23-0.8-0.23-0.8l-0.12-0.12c1.6-1.37,3.77-3.2,9.04-3.2
		c11.55,0,25.5,10.98,42.54,10.98c4.31,0,8.58-2.29,7.77-5.49c-0.47-1.88-2.12-3.64-8-1.37c-1.49,0.57-0.34-0.92-0.34-0.92
		c1.6-1.37,3.78-3.2,9.04-3.2c11.55,0,25.5,10.98,42.54,10.98c4.31,0,8.58-2.29,7.78-5.49c-0.47-1.88-2.12-3.64-8.01-1.37
		c-1.49,0.57-0.23-0.8-0.23-0.8l0.11-0.12c1.6-1.37,3.78-3.2,9.04-3.2c6.03,0,12.06,2.74,19.5,5.6L197.92,181.2 M107.77,210.1
		c5.62,1.4,9.83,1.85,17.33,1.85c7.5,0,11.71-0.45,17.33-1.85c0.65-0.16,1.79-1.05,1.58-2.1c-0.1-0.48-1.78-8.43-2.08-9.44
		c-0.09-0.3-0.15-0.49-1.04-0.35c-4.63,0.69-9.35,0.99-15.79,0.99c-6.43,0-11.16-0.29-15.79-0.99c-0.2-0.03-0.36-0.04-0.48-0.04
		c-0.43,0-0.48,0.16-0.55,0.4c-0.3,1-1.98,8.95-2.08,9.43C105.98,209.05,107.12,209.93,107.77,210.1z M138.54,196.49
		c2.11,0.77,3.74-0.26,4.35,1.8c0,0,0.06,0.86,0.14,1.91c0.22,0.99,0.49,2.23,0.75,3.42c1.58-0.27,6.42-1.76,6.42-1.76l-3.25-9.72
		c0,0-7.1,1.8-8.02,2.15C137.91,194.69,136.69,195.81,138.54,196.49z M107.17,200.2c0.08-1.05,0.14-1.91,0.14-1.91
		c0.6-2.06,2.23-1.03,4.35-1.8c1.85-0.68,0.63-1.8-0.4-2.2c-0.92-0.35-8.02-2.15-8.02-2.15l-3.25,9.72c0,0,4.85,1.49,6.42,1.76
		C106.68,202.43,106.95,201.19,107.17,200.2z"/>
	<path d="M117.29,202.97c-0.51,0.23-0.85,0.38-1.01,0.46l-0.08-0.02l-0.05-0.36l0.05-0.05c0.31-0.09,0.66-0.22,1.03-0.38
		c0.55-0.23,0.9-0.39,1.06-0.47l0.11,0.04c-0.04,1.36-0.07,2.14-0.07,2.34v1.66c0,0.66,0.01,1.16,0.03,1.5
		c0.01,0.2,0.03,0.33,0.07,0.38c0.04,0.05,0.1,0.09,0.18,0.11c0.08,0.02,0.33,0.04,0.77,0.06v0.29c-0.75-0.02-1.21-0.02-1.4-0.02
		c-0.14,0-0.64,0.01-1.5,0.02v-0.29c0.45-0.03,0.71-0.05,0.78-0.07c0.07-0.01,0.12-0.04,0.16-0.07c0.03-0.03,0.05-0.08,0.07-0.14
		c0.02-0.09,0.05-0.36,0.07-0.8c0.02-0.44,0.03-0.77,0.03-1v-1.76c0-0.71,0-1.17,0-1.35c0-0.08-0.01-0.13-0.03-0.15
		c-0.01-0.01-0.03-0.02-0.05-0.02C117.47,202.9,117.4,202.92,117.29,202.97 M121.63,204.06c0-0.51,0.12-0.9,0.34-1.16
		c0.23-0.26,0.51-0.39,0.86-0.39c0.39,0,0.69,0.16,0.9,0.48c0.21,0.32,0.31,0.72,0.31,1.18c0,0.48-0.11,0.83-0.32,1.07
		c-0.22,0.24-0.5,0.35-0.86,0.35c-0.26,0-0.48-0.07-0.67-0.2c-0.19-0.14-0.33-0.33-0.42-0.58
		C121.68,204.57,121.63,204.32,121.63,204.06 M121.52,208.67c0.55-0.08,1.08-0.3,1.59-0.64c0.6-0.41,1.06-0.93,1.37-1.56
		c0.26-0.52,0.38-1.12,0.38-1.81c0-0.56-0.08-1.02-0.25-1.37c-0.17-0.35-0.4-0.62-0.69-0.8c-0.29-0.18-0.63-0.27-1-0.27
		c-0.59,0-1.07,0.2-1.45,0.59c-0.39,0.39-0.58,0.91-0.58,1.55c0,0.56,0.15,1,0.46,1.32c0.31,0.32,0.7,0.48,1.18,0.48
		c0.17,0,0.32-0.02,0.46-0.06c0.11-0.03,0.21-0.08,0.29-0.13c0.06-0.03,0.14-0.1,0.25-0.2c0.18-0.16,0.34-0.29,0.48-0.38
		c-0.05,0.5-0.17,0.94-0.36,1.31c-0.24,0.48-0.57,0.85-0.98,1.13c-0.42,0.28-0.89,0.48-1.43,0.61v0.09L121.52,208.67z
		 M126.14,208.38c0.22,0.09,0.42,0.16,0.59,0.2c0.18,0.04,0.36,0.06,0.57,0.06c0.47,0,0.91-0.11,1.32-0.34
		c0.41-0.22,0.72-0.5,0.94-0.85c0.23-0.34,0.34-0.69,0.34-1.04c0-0.24-0.05-0.46-0.16-0.66c-0.11-0.2-0.26-0.35-0.45-0.46
		c-0.2-0.11-0.47-0.18-0.8-0.23c0.36-0.26,0.62-0.51,0.77-0.76c0.15-0.25,0.23-0.5,0.23-0.76c0-0.38-0.15-0.7-0.44-0.96
		c-0.29-0.26-0.69-0.4-1.2-0.4c-0.34,0-0.66,0.07-0.95,0.2c-0.17,0.09-0.36,0.23-0.56,0.44l-0.27,1.07h0.29
		c0.12-0.31,0.2-0.52,0.25-0.63c0.14-0.13,0.3-0.23,0.47-0.31c0.18-0.08,0.36-0.12,0.55-0.12c0.32,0,0.58,0.1,0.79,0.3
		c0.21,0.2,0.31,0.45,0.31,0.74c0,0.32-0.1,0.61-0.3,0.86c-0.2,0.26-0.48,0.38-0.84,0.38c-0.08,0-0.24-0.01-0.48-0.03l-0.1,0.48
		l0.05,0.04c0.2-0.08,0.36-0.14,0.46-0.16c0.1-0.02,0.21-0.04,0.33-0.04c0.36,0,0.64,0.11,0.85,0.33c0.21,0.22,0.32,0.54,0.32,0.95
		c0,0.31-0.06,0.59-0.18,0.83c-0.12,0.25-0.28,0.43-0.47,0.54c-0.2,0.11-0.44,0.17-0.72,0.17c-0.39,0-0.7-0.09-0.95-0.26
		c-0.24-0.18-0.45-0.52-0.64-1.02l-0.25,0.09c0.12,0.41,0.18,0.65,0.2,0.74C126.06,207.94,126.1,208.13,126.14,208.38 M131.72,208.5
		c0.12,0,0.26,0.01,0.43,0.03c0.12-0.32,0.28-0.7,0.49-1.14c0.28-0.59,0.6-1.22,0.96-1.9c0.52-0.97,0.85-1.58,0.99-1.82l0.64-1.14
		v-0.27c-0.95,0.04-1.61,0.07-1.99,0.07c-0.17,0-0.52-0.01-1.05-0.03c-0.42-0.01-0.74-0.03-0.98-0.05l-0.09,0.04
		c0.02,0.29,0.02,0.54,0.02,0.73l-0.02,1.17h0.25l0.13-0.97l0.04-0.06c0.02-0.02,0.05-0.04,0.09-0.06c0.07-0.03,0.25-0.04,0.55-0.05
		c0.3-0.01,0.59-0.02,0.87-0.02h1.38l0.04,0.04c-0.07,0.13-0.12,0.23-0.16,0.29c-0.44,0.76-0.78,1.35-1.04,1.77
		c-0.63,1.02-1.02,1.66-1.18,1.91c-0.48,0.77-0.78,1.23-0.88,1.38l0.09,0.1C131.45,208.51,131.59,208.5,131.72,208.5"/>
	<path fill="#FFFFFF" d="M11.49,126.53l-0.84-0.03l0.18-2.96l0.05-4.49c0.03-0.88,0.15-1.57,0.35-2.07c0.2-0.5,0.54-0.93,1.03-1.27
		c0.49-0.35,1.11-0.51,1.87-0.48c0.76,0.03,1.46,0.23,2.09,0.6c0.64,0.37,1.15,0.94,1.55,1.69c0.39,0.76,0.58,1.56,0.54,2.4
		c-0.01,0.21-0.03,0.42-0.06,0.62c-0.03,0.2-0.07,0.4-0.13,0.6c-0.19,0.06-0.44,0.17-0.73,0.33l-0.21-0.22
		c0.05-0.14,0.09-0.28,0.12-0.41c0.03-0.13,0.04-0.24,0.05-0.35c0.02-0.64-0.19-1.18-0.63-1.61c-0.44-0.43-1.1-0.67-1.98-0.7
		c-0.91-0.03-1.61,0.16-2.09,0.58c-0.48,0.42-0.73,1.03-0.76,1.81c-0.01,0.37,0.02,0.79,0.11,1.25c0.41,0.04,1.02,0.08,1.82,0.12
		l1.96,0.09l3.8,0.14c0.94,0.03,1.9,0.05,2.91,0.05c0.58,0,0.95-0.02,1.11-0.07c0.07-0.02,0.13-0.07,0.18-0.13
		c0.05-0.06,0.1-0.17,0.13-0.34l0.14-1.35l0.89,0.03c-0.12,1.72-0.19,3.02-0.22,3.88c-0.04,0.96-0.04,1.87-0.02,2.74l-0.89-0.03
		c0.01-0.75-0.03-1.23-0.12-1.43c-0.03-0.06-0.08-0.11-0.15-0.15c-0.09-0.05-0.34-0.1-0.73-0.14c-1.07-0.11-2.26-0.18-3.58-0.23
		l-3.55-0.12l-1.89-0.01c-0.81-0.01-1.32-0.02-1.52-0.01c-0.2,0.01-0.35,0.04-0.44,0.08c-0.05,0.03-0.1,0.07-0.15,0.13
		c-0.04,0.06-0.08,0.18-0.12,0.34L11.49,126.53 M25.57,112.01c0.32-2.06,0.49-3.16,0.52-3.32c0.11-0.59,0.32-1.67,0.63-3.24
		l0.33-1.58c0.14-0.78,0.22-1.38,0.25-1.82l-0.11-0.15c-0.84-0.15-1.9-0.42-3.18-0.79l-0.15,0.8c0.86,0.29,1.44,0.52,1.73,0.7
		c0.09,0.06,0.14,0.11,0.15,0.16c0.06,0.15,0.06,0.53,0,1.14c-0.06,0.61-0.16,1.27-0.29,1.98c-0.13,0.73-0.27,1.35-0.42,1.87
		c-0.34-0.03-0.73-0.08-1.2-0.16l-4.12-0.74c0.02-0.43,0.09-0.97,0.21-1.61c0.13-0.72,0.28-1.3,0.43-1.75
		c0.07-0.2,0.18-0.33,0.33-0.38c0.2-0.08,0.68-0.04,1.45,0.11l0.15-0.8l-2.18-0.34l-2.17-0.45l-0.15,0.8
		c0.58,0.12,0.99,0.24,1.23,0.37c0.09,0.05,0.15,0.11,0.18,0.18c0.03,0.07,0.01,0.28-0.04,0.64c-0.14,0.94-0.23,1.49-0.26,1.64
		c-0.09,0.49-0.2,0.95-0.33,1.38l-2.03-0.37c-1.15-0.21-2.09-0.42-2.82-0.64c0.06-0.62,0.14-1.23,0.25-1.81
		c0.11-0.63,0.27-1.26,0.46-1.9c0.13-0.43,0.23-0.69,0.3-0.76c0.05-0.05,0.12-0.07,0.22-0.08c0.19-0.01,0.67,0.04,1.46,0.17
		l0.14-0.77c-0.84-0.21-1.31-0.33-1.41-0.35l-1.4-0.44l-0.14,0.05c-0.07,0.14-0.11,0.25-0.12,0.31c-0.16,0.72-0.26,1.2-0.3,1.43
		l-0.31,2.01c-0.18,1.11-0.35,2.12-0.52,3.02c-0.08,0.42-0.15,0.85-0.23,1.31l-0.39,2.3l0.77,0.14c0.18-0.76,0.32-1.22,0.43-1.38
		c0.04-0.06,0.1-0.1,0.17-0.12c0.18-0.04,0.64-0.01,1.39,0.11c1.12,0.17,1.76,0.27,1.94,0.3l4.45,0.81
		c0.51,0.09,1.33,0.27,2.46,0.53c0.61,0.14,1.06,0.25,1.33,0.34c0.15,0.29,0.28,0.65,0.39,1.08L25.57,112.01 M15.61,94.55l0.42-1.03
		c0.09-0.15,0.16-0.25,0.21-0.29c0.06-0.05,0.12-0.08,0.18-0.09c0.1-0.02,0.24,0,0.44,0.05c0.2,0.05,0.68,0.19,1.46,0.44l1.81,0.55
		l3.37,1.12c1.25,0.41,2.37,0.82,3.37,1.23c0.37,0.15,0.59,0.26,0.66,0.34c0.05,0.05,0.09,0.11,0.1,0.18
		c0.04,0.22-0.06,0.69-0.29,1.4l0.85,0.28c0.22-0.84,0.49-1.71,0.79-2.62c0.28-0.82,0.71-2.05,1.3-3.66l-0.84-0.28l-0.51,1.25
		c-0.08,0.15-0.15,0.25-0.22,0.29c-0.07,0.04-0.14,0.07-0.21,0.07c-0.16,0-0.52-0.08-1.08-0.24c-0.96-0.28-1.89-0.57-2.78-0.87
		l-3.61-1.2l-1.86-0.64c-0.76-0.26-1.33-0.47-1.72-0.63c0.05-0.47,0.13-0.88,0.24-1.23c0.25-0.74,0.66-1.25,1.24-1.52
		c0.58-0.27,1.3-0.26,2.17,0.03c0.83,0.27,1.4,0.68,1.7,1.23c0.3,0.54,0.35,1.12,0.15,1.73c-0.03,0.1-0.08,0.21-0.15,0.33
		c-0.06,0.11-0.14,0.23-0.23,0.36l0.14,0.27c0.33-0.07,0.6-0.11,0.8-0.11c0.11-0.18,0.2-0.36,0.29-0.54
		c0.09-0.18,0.16-0.38,0.23-0.58c0.27-0.8,0.32-1.62,0.15-2.46c-0.16-0.84-0.5-1.52-1.01-2.06c-0.51-0.54-1.12-0.92-1.84-1.17
		c-0.72-0.24-1.36-0.26-1.93-0.07c-0.57,0.2-1.02,0.51-1.35,0.93c-0.33,0.43-0.64,1.05-0.91,1.89l-1.32,4.29l-1.01,2.79L15.61,94.55
		 M20.96,79.5l0.56-0.96c0.1-0.13,0.19-0.22,0.25-0.26c0.06-0.04,0.13-0.06,0.19-0.06c0.1,0,0.24,0.03,0.43,0.11
		c0.19,0.08,0.65,0.29,1.38,0.64l1.72,0.8l3.18,1.59c1.18,0.59,2.23,1.15,3.16,1.69c0.34,0.2,0.55,0.34,0.61,0.43
		c0.05,0.06,0.07,0.12,0.07,0.2c0,0.22-0.16,0.67-0.48,1.35l0.8,0.4c0.34-0.8,0.72-1.63,1.15-2.48c0.39-0.78,0.99-1.93,1.8-3.44
		l-0.8-0.4l-0.68,1.17c-0.09,0.14-0.18,0.22-0.26,0.26c-0.07,0.04-0.14,0.05-0.22,0.04c-0.16-0.02-0.51-0.15-1.04-0.39
		c-0.91-0.42-1.79-0.83-2.63-1.25l-3.4-1.69L25,76.31c-0.72-0.36-1.25-0.65-1.61-0.86c0.11-0.46,0.25-0.85,0.42-1.19
		c0.35-0.7,0.83-1.15,1.44-1.33c0.61-0.19,1.32-0.08,2.14,0.33c0.78,0.39,1.29,0.88,1.51,1.45c0.22,0.58,0.19,1.16-0.09,1.73
		c-0.05,0.09-0.11,0.2-0.19,0.3c-0.08,0.1-0.17,0.21-0.28,0.32l0.1,0.29c0.34-0.02,0.61-0.03,0.8,0c0.13-0.16,0.25-0.32,0.36-0.49
		c0.11-0.17,0.21-0.35,0.31-0.54c0.38-0.76,0.54-1.56,0.5-2.41c-0.04-0.85-0.28-1.58-0.71-2.18c-0.43-0.6-0.98-1.07-1.66-1.41
		c-0.68-0.34-1.31-0.45-1.9-0.34c-0.59,0.12-1.08,0.36-1.47,0.73c-0.39,0.37-0.78,0.95-1.17,1.74l-1.91,4.06l-1.39,2.62L20.96,79.5
		 M39.62,72.4c1.14-1.74,1.75-2.68,1.84-2.81c0.34-0.5,0.98-1.4,1.9-2.7l0.95-1.31c0.45-0.65,0.77-1.17,0.97-1.55l-0.04-0.18
		c-0.71-0.49-1.56-1.16-2.57-2.03l-0.46,0.67c0.66,0.62,1.09,1.07,1.29,1.35c0.05,0.09,0.08,0.16,0.07,0.21
		c-0.01,0.16-0.17,0.51-0.47,1.04c-0.31,0.53-0.67,1.09-1.08,1.68c-0.42,0.61-0.8,1.12-1.15,1.54c-0.3-0.16-0.64-0.37-1.02-0.64
		l-3.45-2.38c0.2-0.38,0.48-0.84,0.85-1.38c0.42-0.6,0.79-1.07,1.11-1.42c0.15-0.15,0.3-0.22,0.46-0.22
		c0.21,0.01,0.64,0.25,1.28,0.69l0.46-0.67l-1.85-1.21l-1.8-1.3l-0.46,0.67c0.48,0.35,0.81,0.63,0.97,0.84
		c0.06,0.09,0.09,0.17,0.09,0.24c0,0.07-0.1,0.26-0.3,0.56c-0.52,0.8-0.82,1.26-0.91,1.39c-0.28,0.41-0.57,0.78-0.87,1.12l-1.7-1.17
		c-0.96-0.66-1.73-1.24-2.3-1.74c0.31-0.54,0.63-1.06,0.97-1.55c0.36-0.52,0.76-1.04,1.2-1.54c0.29-0.34,0.49-0.53,0.59-0.57
		c0.06-0.02,0.14-0.02,0.23,0.01c0.18,0.07,0.59,0.32,1.26,0.76l0.44-0.65c-0.68-0.54-1.06-0.84-1.14-0.9L33.9,56.3l-0.15-0.02
		c-0.12,0.1-0.2,0.18-0.24,0.23c-0.44,0.59-0.73,0.99-0.86,1.18l-1.11,1.71c-0.62,0.94-1.19,1.78-1.71,2.54
		c-0.24,0.35-0.49,0.71-0.75,1.09l-1.3,1.93l0.65,0.44c0.47-0.62,0.8-0.98,0.96-1.08c0.07-0.04,0.13-0.05,0.21-0.04
		c0.18,0.03,0.58,0.26,1.22,0.67c0.95,0.61,1.5,0.97,1.64,1.07l3.72,2.56c0.43,0.3,1.1,0.79,2.02,1.49c0.5,0.38,0.86,0.67,1.07,0.86
		c0.02,0.33-0.01,0.71-0.09,1.15L39.62,72.4 M37.85,52.15c0.6-0.56,0.98-0.87,1.15-0.93c0.07-0.02,0.15-0.02,0.23,0.01
		c0.17,0.07,0.56,0.38,1.18,0.95l1.58,1.41l2.72,2.55l2.11,2.05c0.37,0.38,0.64,0.67,0.8,0.89c0.09,0.11,0.14,0.2,0.15,0.26
		c0.01,0.06-0.01,0.12-0.05,0.2c-0.06,0.14-0.35,0.49-0.85,1.07l0.65,0.61c0.57-0.68,1.21-1.4,1.92-2.16
		c0.8-0.85,1.61-1.67,2.43-2.47l-0.65-0.61c-0.45,0.46-0.73,0.73-0.84,0.81c-0.11,0.08-0.2,0.13-0.28,0.14
		c-0.07,0.01-0.14,0.01-0.2-0.01c-0.12-0.04-0.32-0.18-0.61-0.42c-0.15-0.12-0.73-0.64-1.75-1.57c-0.83-0.76-1.61-1.48-2.35-2.17
		c-0.47-0.44-1.37-1.32-2.73-2.65c-0.6-0.59-0.98-0.98-1.14-1.16c0.18-0.27,0.38-0.52,0.6-0.75c0.5-0.53,0.88-0.86,1.14-1
		c0.42-0.21,0.87-0.28,1.37-0.21c0.5,0.07,0.98,0.31,1.43,0.73c0.44,0.42,0.75,0.9,0.92,1.44c0.17,0.54,0.18,1.03,0.04,1.46
		c-0.14,0.43-0.5,0.93-1.07,1.5l0.17,0.31c0.24-0.04,0.55-0.04,0.91,0c0.72,0.08,1.66,0.25,2.82,0.5l4.06,0.85
		c0.26,0.07,0.45,0.14,0.58,0.22c0.33-0.42,0.67-0.83,1.04-1.22c0.31-0.34,0.85-0.87,1.59-1.58l-0.65-0.61
		c-0.22,0.23-0.39,0.36-0.49,0.41c-0.11,0.05-0.24,0.07-0.41,0.07c-0.17,0-0.66-0.04-1.49-0.13c-0.06-0.01-0.45-0.07-1.19-0.19
		l-2.76-0.45c-0.07-0.01-0.14-0.03-0.22-0.04c-0.07-0.02-0.3-0.06-0.67-0.11c-0.37-0.06-0.73-0.13-1.06-0.21
		c0.44-1.03,0.59-1.96,0.45-2.79c-0.14-0.82-0.5-1.51-1.09-2.07c-0.5-0.47-1.05-0.73-1.65-0.79c-0.6-0.06-1.13,0.05-1.6,0.33
		c-0.47,0.28-1.06,0.8-1.78,1.57c-0.37,0.4-0.83,0.91-1.37,1.55c-0.32,0.39-0.72,0.84-1.21,1.35c-0.56,0.6-1.01,1.06-1.33,1.37
		c-0.65,0.65-1.03,1.03-1.14,1.14L37.85,52.15 M61.66,45.76c-0.44-0.47-1.25-1.5-2.45-3.09l-1.39-1.85
		c-1.58-2.1-2.63-3.55-3.14-4.35c0.43-0.46,0.85-0.84,1.26-1.15c1.09-0.82,1.98-1.34,2.67-1.55c0.68-0.21,1.36-0.23,2.04-0.07
		c0.67,0.17,1.31,0.48,1.89,0.93c0.58,0.46,1.11,0.99,1.57,1.6c0.5,0.67,0.9,1.36,1.18,2.05c0.28,0.7,0.44,1.36,0.47,1.99
		c0.04,0.63-0.02,1.17-0.16,1.61c-0.14,0.44-0.37,0.87-0.69,1.29c-0.44,0.56-1.01,1.11-1.72,1.64
		C62.72,45.15,62.22,45.47,61.66,45.76 M61.56,47.27l2.43-1.73c1.08-0.81,1.92-1.63,2.5-2.44c0.59-0.81,1-1.74,1.25-2.77
		c0.25-1.04,0.26-2.1,0.03-3.18c-0.23-1.09-0.73-2.14-1.5-3.17c-0.61-0.81-1.29-1.45-2.05-1.94c-0.45-0.29-0.96-0.5-1.51-0.63
		c-0.55-0.13-1.14-0.16-1.75-0.1c-0.61,0.06-1.25,0.25-1.91,0.56c-0.66,0.31-1.46,0.82-2.41,1.54c-0.41,0.31-0.95,0.73-1.62,1.27
		c-0.92,0.75-1.55,1.25-1.9,1.51l-2.96,2.12l0.49,0.65c0.64-0.36,1.01-0.57,1.12-0.61c0.11-0.05,0.2-0.07,0.27-0.05
		c0.05,0.01,0.1,0.03,0.15,0.06c0.21,0.17,0.61,0.63,1.2,1.37c1.06,1.35,1.85,2.38,2.38,3.09l0.99,1.32
		c1.22,1.62,2.07,2.81,2.55,3.57c-0.08,0.25-0.19,0.51-0.31,0.77c-0.07,0.14-0.11,0.24-0.13,0.3l0.29,0.38L61.56,47.27z M72.9,23.22
		c-0.94,0.58-1.94,1.16-3.02,1.76c-0.96,0.53-1.83,0.98-2.59,1.34l0.43,0.78c0.65-0.33,1.04-0.51,1.15-0.54
		c0.12-0.03,0.21-0.04,0.27-0.01c0.06,0.02,0.12,0.06,0.18,0.13c0.15,0.17,0.44,0.61,0.88,1.34c0.21,0.32,0.65,1.06,1.29,2.23
		l2.03,3.68c0.33,0.6,0.67,1.26,1.03,1.98c0.24,0.5,0.36,0.79,0.39,0.87c0.02,0.06,0.01,0.12-0.01,0.19
		c-0.02,0.07-0.09,0.15-0.2,0.24c-0.09,0.07-0.44,0.29-1.06,0.66l0.43,0.78c0.72-0.46,1.55-0.95,2.5-1.47
		c1.09-0.6,2.13-1.14,3.12-1.63l-0.43-0.78c-0.58,0.3-0.94,0.48-1.07,0.52c-0.13,0.04-0.24,0.05-0.32,0.04
		c-0.08-0.01-0.16-0.05-0.23-0.12c-0.16-0.15-0.4-0.53-0.74-1.13l-0.94-1.59l-1.96-3.55c-0.06-0.11-0.48-0.9-1.26-2.35
		c-0.23-0.42-0.38-0.72-0.46-0.88c-0.14-0.29-0.21-0.5-0.23-0.62c-0.01-0.07-0.01-0.14,0.02-0.2c0.03-0.06,0.09-0.14,0.19-0.23
		c0.1-0.09,0.45-0.31,1.04-0.66L72.9,23.22 M81.97,33.18l0.32,0.83c1.03-0.45,1.85-0.78,2.46-1.02c0.16-0.06,0.85-0.31,2.04-0.75
		l-0.3-0.78c-0.08,0.04-0.15,0.07-0.18,0.08c-0.19,0.07-0.5,0.16-0.92,0.26c-0.16,0.04-0.28,0.05-0.35,0.02
		c-0.08-0.02-0.14-0.07-0.2-0.14c-0.11-0.14-0.31-0.56-0.62-1.28c-0.45-1.04-0.85-2.04-1.22-3l-1.77-4.68
		c5.44,3.13,9.6,5.45,12.48,6.95c0.57-0.13,1.14-0.25,1.69-0.36l0.09-0.13c-0.42-0.86-1.42-3.38-3-7.56c-0.2-0.53-0.5-1.37-0.9-2.5
		c-0.4-1.13-0.61-1.87-0.63-2.22c-0.01-0.07,0.01-0.13,0.05-0.18c0.11-0.15,0.55-0.38,1.31-0.69l-0.3-0.78
		c-0.96,0.42-1.74,0.74-2.36,0.98c-0.64,0.24-1.35,0.48-2.13,0.72l0.3,0.78c0.84-0.31,1.35-0.43,1.54-0.37
		c0.11,0.04,0.23,0.17,0.34,0.39c0.3,0.57,1.09,2.55,2.38,5.93l0.82,2.18c-1.21-0.57-2.78-1.4-4.7-2.49
		c-2.67-1.51-4.97-2.86-6.91-4.06l-0.85,0.36l-1.35,0.55c-0.38,0.14-0.97,0.34-1.79,0.59l0.3,0.78c0.68-0.21,1.09-0.32,1.25-0.33
		c0.15-0.01,0.27,0,0.35,0.04c0.08,0.04,0.17,0.13,0.25,0.25s0.22,0.42,0.4,0.87l1.08,2.72l1.14,3.01c0.31,0.83,0.56,1.51,0.73,2.04
		c0.29,0.93,0.47,1.53,0.52,1.78c0.03,0.19,0.04,0.32,0.01,0.39c-0.03,0.07-0.07,0.14-0.13,0.19C83.12,32.67,82.7,32.87,81.97,33.18
		 M100.22,27.76c2.03-0.46,3.12-0.71,3.28-0.74c0.59-0.12,1.67-0.32,3.24-0.61l1.59-0.28c0.77-0.15,1.37-0.3,1.78-0.44l0.1-0.15
		c-0.17-0.84-0.31-1.93-0.44-3.25l-0.79,0.16c0.05,0.91,0.04,1.53-0.01,1.87c-0.02,0.1-0.05,0.17-0.09,0.2
		c-0.12,0.11-0.47,0.26-1.06,0.42c-0.59,0.17-1.24,0.32-1.94,0.46c-0.72,0.15-1.36,0.25-1.9,0.3c-0.1-0.32-0.2-0.71-0.29-1.17
		l-0.83-4.11c0.41-0.13,0.93-0.27,1.58-0.4c0.72-0.15,1.31-0.23,1.78-0.25c0.21-0.01,0.37,0.05,0.48,0.16
		c0.14,0.15,0.28,0.62,0.43,1.38l0.8-0.16l-0.49-2.15l-0.39-2.19l-0.79,0.16c0.1,0.59,0.14,1.01,0.12,1.28
		c-0.01,0.11-0.05,0.18-0.1,0.23c-0.05,0.05-0.26,0.12-0.61,0.2c-0.93,0.22-1.47,0.34-1.62,0.37c-0.48,0.1-0.96,0.17-1.41,0.2
		l-0.41-2.02c-0.23-1.14-0.38-2.09-0.44-2.85c0.6-0.18,1.2-0.32,1.78-0.44c0.63-0.13,1.27-0.22,1.93-0.28
		c0.45-0.04,0.72-0.04,0.82,0c0.06,0.03,0.12,0.09,0.16,0.17c0.08,0.17,0.21,0.64,0.38,1.41l0.77-0.15
		c-0.12-0.86-0.18-1.34-0.19-1.44l-0.11-1.46l-0.09-0.11c-0.16-0.01-0.27-0.01-0.34,0c-0.73,0.12-1.21,0.2-1.44,0.25l-1.99,0.45
		c-1.1,0.24-2.09,0.45-2.99,0.63c-0.41,0.08-0.85,0.17-1.3,0.27l-2.28,0.48l0.16,0.77c0.77-0.11,1.25-0.15,1.44-0.11
		c0.07,0.02,0.13,0.06,0.18,0.12c0.1,0.15,0.24,0.59,0.41,1.33c0.26,1.1,0.4,1.74,0.44,1.91l0.89,4.43c0.1,0.51,0.24,1.34,0.42,2.48
		c0.1,0.62,0.15,1.07,0.17,1.36c-0.21,0.25-0.5,0.5-0.86,0.77L100.22,27.76 M143.32,12.73l1.28,0.44c0.11,0.13,0.18,0.23,0.19,0.31
		c0.03,0.15,0.02,0.36-0.02,0.66c-0.13,0.74-0.31,1.57-0.52,2.48l-0.57,2.49l-0.44,1.88c-0.23,1.03-0.37,1.67-0.39,1.91
		c-0.04,0.39,0,0.81,0.11,1.27c0.11,0.46,0.33,0.89,0.65,1.32c0.32,0.42,0.77,0.8,1.35,1.14c0.8,0.46,1.69,0.81,2.68,1.04
		c0.85,0.19,1.61,0.27,2.3,0.24c0.69-0.04,1.31-0.18,1.86-0.43c0.55-0.25,1-0.57,1.36-0.96c0.36-0.38,0.65-0.88,0.88-1.49
		s0.41-1.21,0.55-1.79l0.53-2.3c0.16-0.68,0.39-1.6,0.7-2.77c0.31-1.17,0.51-1.82,0.6-1.95c0.08-0.14,0.17-0.22,0.26-0.25
		c0.18-0.06,0.58-0.02,1.2,0.12l0.19-0.82l-2.18-0.43c-0.12-0.02-0.21-0.04-0.26-0.05c-0.22-0.05-0.91-0.23-2.08-0.56l-0.19,0.82
		c0.73,0.19,1.18,0.36,1.37,0.52c0.09,0.08,0.15,0.17,0.17,0.29c0.03,0.19-0.04,0.69-0.2,1.52c-0.09,0.38-0.33,1.43-0.73,3.16
		l-0.46,2c-0.32,1.39-0.65,2.31-1,2.75c-0.34,0.44-0.82,0.76-1.44,0.94c-0.61,0.19-1.38,0.17-2.29-0.04
		c-0.79-0.18-1.42-0.45-1.89-0.8c-0.46-0.35-0.78-0.74-0.94-1.18c-0.16-0.43-0.2-0.96-0.12-1.59c0.04-0.29,0.19-1.03,0.47-2.22
		l0.25-1.15l0.52-2.27c0.32-1.38,0.56-2.26,0.74-2.65c0.07-0.16,0.16-0.26,0.28-0.3c0.22-0.08,0.69-0.04,1.4,0.13l0.19-0.82
		l-0.37-0.07l-1.33-0.27l-1.33-0.28l-3.17-0.81L143.32,12.73 M159.17,29.45l-0.36,0.81c1.04,0.41,1.87,0.75,2.47,1.01
		c0.16,0.07,0.82,0.38,1.97,0.91l0.34-0.77c-0.09-0.03-0.15-0.06-0.19-0.07c-0.19-0.08-0.47-0.23-0.84-0.46
		c-0.14-0.08-0.23-0.16-0.26-0.23c-0.04-0.07-0.05-0.15-0.04-0.23c0.02-0.17,0.17-0.62,0.47-1.34c0.41-1.05,0.83-2.05,1.25-2.99
		l2.04-4.57c1.65,6.05,2.97,10.63,3.95,13.73c0.5,0.31,0.98,0.62,1.46,0.94l0.15-0.03c0.31-0.91,1.37-3.4,3.2-7.48
		c0.23-0.52,0.61-1.32,1.12-2.41c0.51-1.08,0.88-1.76,1.12-2.03c0.04-0.05,0.1-0.08,0.16-0.09c0.18-0.03,0.66,0.12,1.41,0.43
		l0.34-0.76c-0.97-0.38-1.76-0.7-2.36-0.97c-0.62-0.28-1.3-0.61-2.02-0.99l-0.34,0.77c0.81,0.37,1.26,0.65,1.35,0.82
		c0.05,0.11,0.05,0.28-0.03,0.52c-0.19,0.62-1.02,2.57-2.49,5.88l-0.95,2.13c-0.46-1.26-0.99-2.95-1.59-5.08
		c-0.83-2.95-1.51-5.54-2.03-7.75l-0.87-0.34l-1.35-0.56c-0.37-0.16-0.93-0.44-1.68-0.84l-0.34,0.76c0.63,0.33,1,0.55,1.12,0.64
		c0.12,0.1,0.19,0.19,0.22,0.28c0.03,0.09,0.03,0.21,0,0.36c-0.03,0.15-0.14,0.45-0.33,0.9l-1.14,2.69l-1.31,2.95
		c-0.36,0.81-0.67,1.47-0.92,1.96c-0.45,0.87-0.74,1.41-0.88,1.63c-0.11,0.16-0.2,0.25-0.27,0.29c-0.07,0.04-0.14,0.05-0.22,0.04
		C160.34,29.89,159.91,29.74,159.17,29.45 M188.65,29.92c-0.96-0.54-1.96-1.14-3-1.79c-0.93-0.58-1.74-1.12-2.43-1.62l-0.47,0.76
		c0.6,0.41,0.95,0.66,1.03,0.75c0.09,0.09,0.13,0.16,0.14,0.23c0.01,0.06,0,0.14-0.02,0.22c-0.08,0.21-0.33,0.68-0.75,1.42
		c-0.17,0.34-0.62,1.08-1.33,2.21l-2.24,3.56c-0.36,0.58-0.77,1.2-1.23,1.86c-0.32,0.45-0.52,0.7-0.58,0.76
		c-0.04,0.04-0.1,0.07-0.17,0.09c-0.07,0.01-0.18-0.01-0.31-0.07c-0.11-0.04-0.47-0.24-1.1-0.61l-0.48,0.76
		c0.75,0.41,1.58,0.9,2.5,1.47c1.06,0.66,2.04,1.31,2.94,1.93l0.47-0.75c-0.55-0.36-0.88-0.59-0.98-0.69
		c-0.1-0.1-0.16-0.19-0.19-0.26c-0.03-0.07-0.03-0.16,0-0.26c0.06-0.21,0.26-0.61,0.63-1.19l0.93-1.59l2.16-3.43
		c0.07-0.11,0.55-0.85,1.44-2.24c0.26-0.41,0.44-0.68,0.54-0.82c0.19-0.26,0.34-0.43,0.44-0.5c0.05-0.04,0.12-0.07,0.18-0.08
		c0.07-0.01,0.17,0.01,0.29,0.05c0.12,0.04,0.49,0.24,1.08,0.59L188.65,29.92 M187.59,46.74l1.18,0.96
		c1.04-0.63,2.88-1.66,5.51-3.08l3.1-1.66l1.61-0.85c1.32-0.71,2.09-1.06,2.32-1.06c0.13,0.01,0.47,0.19,1.02,0.55l0.56-0.69
		l-1.74-1.31l-1.94-1.67l-0.56,0.69c0.23,0.2,0.5,0.45,0.82,0.75c0.14,0.13,0.23,0.22,0.25,0.27c0.03,0.06,0.04,0.12,0.03,0.19
		c0,0.07-0.04,0.15-0.12,0.24c-0.05,0.06-0.11,0.12-0.17,0.18c-0.23,0.17-0.71,0.48-1.45,0.91c-1.05,0.62-1.63,0.96-1.76,1.03
		l-5.21,2.9l1.93-6.42c0.03-0.07,0.05-0.14,0.07-0.18c0.02-0.05,0.12-0.39,0.31-1.03c0.33-1.11,0.56-1.75,0.69-1.91
		c0.06-0.08,0.14-0.12,0.22-0.14c0.09-0.01,0.19,0.01,0.33,0.08c0.24,0.11,0.57,0.34,1.01,0.69l0.56-0.69l-2.85-2.21
		c-0.27-0.22-1.01-0.85-2.23-1.91l-0.56,0.69c0.48,0.41,0.77,0.71,0.85,0.92c0.06,0.14,0.03,0.49-0.09,1.06
		c-0.12,0.56-0.59,2.23-1.41,5.02l-1.03,3.55C188.45,43.9,188.03,45.29,187.59,46.74 M195.55,53.54c1.44,1.5,2.22,2.3,2.33,2.42
		c0.41,0.44,1.14,1.26,2.2,2.46l1.06,1.22c0.53,0.58,0.97,1.01,1.3,1.3l0.18,0.01c0.63-0.58,1.48-1.27,2.56-2.06l-0.55-0.6
		c-0.75,0.51-1.28,0.83-1.6,0.96c-0.1,0.03-0.17,0.04-0.22,0.03c-0.16-0.04-0.46-0.27-0.91-0.69c-0.45-0.42-0.92-0.89-1.4-1.42
		c-0.5-0.55-0.92-1.04-1.24-1.47c0.22-0.25,0.51-0.54,0.85-0.85l3.09-2.83c0.33,0.28,0.71,0.66,1.16,1.14c0.49,0.54,0.87,1,1.13,1.4
		c0.12,0.18,0.15,0.34,0.11,0.49c-0.06,0.2-0.38,0.57-0.96,1.09l0.55,0.6l1.59-1.53l1.67-1.46l-0.55-0.6
		c-0.45,0.39-0.79,0.65-1.04,0.76c-0.09,0.04-0.18,0.05-0.25,0.04c-0.07-0.02-0.23-0.16-0.48-0.42c-0.67-0.68-1.05-1.08-1.15-1.2
		c-0.33-0.36-0.63-0.73-0.9-1.1l1.52-1.39c0.86-0.79,1.6-1.41,2.22-1.85c0.46,0.42,0.89,0.85,1.29,1.29
		c0.43,0.47,0.85,0.97,1.24,1.51c0.27,0.36,0.41,0.6,0.43,0.7c0.01,0.07-0.02,0.14-0.07,0.23c-0.1,0.16-0.44,0.51-1.02,1.05
		l0.53,0.58c0.68-0.55,1.05-0.85,1.13-0.91l1.2-0.85l0.05-0.14c-0.07-0.14-0.13-0.24-0.18-0.29c-0.48-0.56-0.8-0.93-0.96-1.11
		l-1.41-1.47c-0.78-0.82-1.47-1.56-2.09-2.24c-0.29-0.31-0.58-0.63-0.9-0.97l-1.59-1.7l-0.58,0.53c0.5,0.6,0.78,0.99,0.84,1.18
		c0.02,0.07,0.02,0.14-0.01,0.21c-0.07,0.17-0.38,0.52-0.93,1.04c-0.81,0.79-1.28,1.25-1.41,1.36l-3.33,3.06
		c-0.38,0.35-1.02,0.9-1.9,1.64c-0.48,0.41-0.84,0.69-1.07,0.85c-0.32-0.05-0.69-0.17-1.1-0.34L195.55,53.54 M216.34,57.66
		c0,0.08-0.02,0.15-0.06,0.22c-0.1,0.15-0.5,0.46-1.19,0.94l-1.73,1.23l-3.1,2.08l-2.47,1.59c-0.45,0.28-0.8,0.47-1.04,0.58
		c-0.13,0.06-0.22,0.09-0.28,0.08c-0.06,0-0.12-0.03-0.18-0.09c-0.12-0.09-0.4-0.45-0.85-1.07l-0.74,0.5
		c0.54,0.71,1.1,1.49,1.68,2.36c0.65,0.97,1.27,1.94,1.87,2.92l0.74-0.5c-0.35-0.54-0.55-0.88-0.6-1c-0.05-0.13-0.07-0.23-0.07-0.3
		c0-0.07,0.02-0.14,0.05-0.19c0.07-0.11,0.25-0.28,0.55-0.5c0.15-0.11,0.79-0.57,1.93-1.36c0.93-0.64,1.8-1.24,2.64-1.8
		c0.53-0.36,1.59-1.04,3.19-2.06c0.71-0.45,1.17-0.73,1.39-0.85c0.22,0.23,0.42,0.48,0.6,0.75c0.4,0.6,0.64,1.05,0.72,1.34
		c0.11,0.45,0.08,0.91-0.1,1.39c-0.18,0.47-0.52,0.88-1.03,1.23c-0.51,0.34-1.04,0.53-1.61,0.57c-0.57,0.04-1.04-0.06-1.43-0.29
		c-0.39-0.23-0.8-0.69-1.22-1.38l-0.34,0.09c-0.01,0.25-0.08,0.55-0.2,0.89c-0.25,0.68-0.62,1.56-1.12,2.64l-1.74,3.76
		c-0.12,0.24-0.24,0.41-0.34,0.52c0.34,0.41,0.66,0.84,0.96,1.28c0.26,0.38,0.65,1.02,1.19,1.9l0.74-0.5
		c-0.17-0.27-0.27-0.46-0.29-0.57c-0.02-0.12-0.01-0.25,0.02-0.41c0.03-0.16,0.19-0.64,0.46-1.43c0.02-0.05,0.17-0.42,0.45-1.11
		l1.06-2.59c0.03-0.07,0.06-0.13,0.09-0.2c0.03-0.07,0.12-0.28,0.26-0.63c0.14-0.35,0.29-0.68,0.44-0.99
		c0.91,0.66,1.78,1.01,2.62,1.06c0.83,0.05,1.59-0.15,2.26-0.6c0.57-0.38,0.95-0.86,1.14-1.43c0.19-0.57,0.2-1.12,0.03-1.63
		c-0.17-0.52-0.54-1.21-1.13-2.09c-0.31-0.45-0.7-1.01-1.2-1.68c-0.31-0.4-0.66-0.89-1.05-1.48c-0.46-0.68-0.81-1.22-1.05-1.6
		c-0.48-0.78-0.77-1.24-0.85-1.36l-0.67,0.45C216.1,57.04,216.31,57.48,216.34,57.66 M226.97,81.64c0.63-0.27,1.14-0.47,1.53-0.61
		c0.4-0.14,0.81-0.25,1.25-0.35l0.18-0.17c0.01-0.54-0.07-1.14-0.24-1.8c-0.17-0.66-0.4-1.3-0.7-1.95
		c-0.29-0.61-0.64-1.18-1.05-1.71c-0.41-0.52-0.89-0.94-1.42-1.26c-0.53-0.32-1.15-0.49-1.86-0.5c-0.71-0.01-1.4,0.14-2.08,0.46
		c-0.48,0.23-0.9,0.52-1.25,0.88c-0.35,0.36-0.6,0.76-0.74,1.22c-0.15,0.46-0.18,0.98-0.09,1.58c0.06,0.39,0.23,1.19,0.52,2.4
		c0.18,0.85,0.26,1.46,0.24,1.84c-0.02,0.38-0.13,0.7-0.34,0.98c-0.2,0.27-0.5,0.5-0.88,0.68c-0.46,0.21-0.91,0.3-1.36,0.27
		c-0.45-0.03-0.89-0.23-1.31-0.58c-0.42-0.36-0.76-0.82-1.03-1.4c-0.31-0.66-0.46-1.34-0.43-2.03c0.02-0.69,0.17-1.24,0.44-1.65
		c0.61-0.39,1.14-0.68,1.58-0.87l-0.36-0.76c-1.41,0.66-2.51,1.06-3.28,1.2c-0.01,0.85,0.05,1.61,0.19,2.25
		c0.13,0.65,0.38,1.34,0.73,2.09c0.48,1.01,1.03,1.82,1.66,2.41c0.4,0.37,0.88,0.68,1.45,0.94c0.56,0.26,1.13,0.4,1.68,0.44
		c0.74,0.04,1.5-0.11,2.27-0.48c0.44-0.21,0.81-0.45,1.11-0.74c0.3-0.28,0.53-0.57,0.68-0.85c0.15-0.29,0.24-0.63,0.28-1.01
		c0.04-0.39,0-0.85-0.1-1.4c-0.05-0.2-0.16-0.65-0.34-1.33c-0.19-0.68-0.33-1.21-0.42-1.59c-0.1-0.52-0.13-0.93-0.09-1.23
		c0.04-0.3,0.15-0.58,0.34-0.82c0.19-0.25,0.48-0.46,0.88-0.66c0.56-0.26,1.15-0.27,1.78-0.01c0.63,0.25,1.13,0.79,1.52,1.61
		c0.27,0.57,0.41,1.14,0.42,1.69c0.01,0.56-0.07,0.99-0.25,1.31c-0.27,0.18-0.75,0.45-1.45,0.79L226.97,81.64 M234.68,92.18
		c-0.39-1.03-0.79-2.12-1.17-3.29c-0.35-1.04-0.63-1.97-0.85-2.8l-0.85,0.28c0.21,0.7,0.31,1.11,0.32,1.23
		c0.01,0.12,0,0.21-0.04,0.26c-0.03,0.06-0.08,0.11-0.16,0.15c-0.19,0.11-0.68,0.32-1.48,0.62c-0.35,0.15-1.16,0.44-2.43,0.86
		l-3.99,1.32c-0.65,0.21-1.36,0.43-2.14,0.65c-0.53,0.14-0.84,0.21-0.92,0.22c-0.06,0.01-0.12-0.01-0.18-0.04
		c-0.06-0.04-0.13-0.12-0.2-0.25c-0.05-0.1-0.2-0.49-0.46-1.16l-0.85,0.28c0.32,0.79,0.65,1.7,0.99,2.73
		c0.39,1.18,0.74,2.3,1.03,3.36l0.84-0.28c-0.19-0.63-0.3-1.01-0.31-1.15c-0.01-0.14-0.01-0.25,0.02-0.32
		c0.02-0.08,0.08-0.14,0.16-0.2c0.18-0.13,0.59-0.3,1.25-0.52l1.73-0.63l3.85-1.28c0.12-0.04,0.97-0.31,2.54-0.81
		c0.46-0.15,0.78-0.24,0.94-0.29c0.31-0.08,0.53-0.12,0.65-0.11c0.07,0,0.13,0.02,0.19,0.06c0.06,0.04,0.12,0.12,0.19,0.23
		c0.07,0.12,0.22,0.5,0.46,1.15L234.68,92.18 M222.8,102.28c0.29,1.2,0.53,2.28,0.71,3.21c0.17,0.87,0.36,1.95,0.56,3.24l0.79-0.16
		c-0.13-0.8-0.17-1.28-0.12-1.46c0.05-0.17,0.16-0.29,0.32-0.37c0.28-0.13,1.13-0.33,2.55-0.61l5.92-1.17
		c1.57-0.31,2.48-0.48,2.71-0.51l0.28,1.41c0.15,0.76,0.25,1.41,0.31,1.96c0.02,0.17,0.02,0.28-0.01,0.33
		c-0.04,0.06-0.17,0.13-0.4,0.21c-0.45,0.16-0.93,0.3-1.44,0.42l0.16,0.82c1.39-0.25,2.11-0.38,2.17-0.39
		c0.31-0.04,0.66-0.08,1.08-0.09l0.08-0.12c-0.09-0.3-0.16-0.61-0.23-0.91c-0.13-0.56-0.35-1.66-0.68-3.32l-0.79-3.98
		c-0.32-1.61-0.53-2.7-0.62-3.27c-0.06-0.35-0.11-0.68-0.14-1l-0.12-0.07c-0.33,0.11-0.63,0.21-0.92,0.29
		c-0.17,0.04-0.93,0.21-2.27,0.5l0.16,0.82c0.57-0.1,1.09-0.15,1.57-0.16c0.2-0.01,0.32,0.01,0.37,0.05
		c0.04,0.03,0.09,0.15,0.15,0.36c0.15,0.53,0.3,1.14,0.44,1.85l0.27,1.4c-0.18,0.07-1.08,0.27-2.7,0.59l-5.92,1.17
		c-1.42,0.28-2.28,0.42-2.58,0.4c-0.19-0.02-0.35-0.09-0.45-0.22s-0.25-0.59-0.43-1.38L222.8,102.28 M232.71,121.44
		c0.33-0.18,1.23-0.69,2.68-1.54c0.92-0.53,1.73-1.05,2.43-1.57c0.47-0.35,0.8-0.62,0.96-0.82c0.17-0.2,0.36-0.5,0.57-0.92
		c-0.12-0.38-0.22-0.74-0.31-1.1l-0.51-2.11l-0.76,0.03c0.02,0.51,0.01,0.8-0.02,0.89c-0.07,0.15-0.28,0.39-0.62,0.74
		c-0.53,0.53-1.23,1.11-2.12,1.73c-1.09,0.77-2.19,1.5-3.31,2.18c-0.47,0.28-0.78,0.42-0.94,0.43l-1.91,0.08
		c-0.53,0.03-1.19,0.04-1.95,0.04c-0.33-0.01-0.54-0.03-0.61-0.08c-0.07-0.05-0.12-0.14-0.16-0.27c-0.04-0.13-0.09-0.58-0.15-1.34
		l-0.89,0.04c0.09,1.02,0.17,2.03,0.21,3.03c0.04,1.03,0.07,2.18,0.07,3.45l0.89-0.04c-0.02-0.75-0.01-1.19,0.02-1.34
		c0.04-0.14,0.09-0.25,0.17-0.31c0.08-0.07,0.31-0.13,0.7-0.19c0.39-0.06,1-0.11,1.85-0.15l1.7-0.07c0.35-0.01,0.6-0.01,0.76,0.02
		c0.22,0.04,0.47,0.12,0.77,0.26c0.44,0.2,1.41,0.75,2.93,1.63c1.52,0.88,2.84,1.71,3.98,2.49l0.45-0.02l-0.07-1.65
		c-0.2-0.08-0.62-0.29-1.28-0.63c-1.91-0.96-3.06-1.55-3.43-1.74L232.71,121.44 M44.03,199.69c0.64-0.57,1.17-1.03,1.58-1.4
		l-0.28-0.32c-0.22,0.18-0.37,0.29-0.45,0.32c-0.06,0.03-0.11,0.03-0.15,0.01c-0.1-0.06-0.29-0.24-0.57-0.55
		c-0.1-0.11-0.27-0.32-0.53-0.65l0.5-0.44c0.62-0.55,1.07-0.92,1.33-1.11c0.07,0.06,0.18,0.19,0.36,0.37
		c0.17,0.18,0.28,0.29,0.31,0.33c0.19,0.21,0.34,0.41,0.45,0.59c0.11,0.18,0.17,0.31,0.18,0.38c0.01,0.02,0,0.04-0.01,0.07
		c-0.01,0.03-0.07,0.09-0.17,0.19c-0.19,0.19-0.31,0.31-0.37,0.36l0.26,0.29c0.16-0.14,0.36-0.3,0.59-0.47
		c0.23-0.17,0.42-0.31,0.59-0.4l0.02-0.07c-0.17-0.24-0.36-0.48-0.58-0.73l-1.59-1.71l-1.12-1.31l-0.3,0.27
		c0.19,0.25,0.31,0.4,0.34,0.46c0.03,0.07,0.05,0.11,0.05,0.14c0,0.03-0.01,0.06-0.03,0.09c-0.06,0.09-0.18,0.22-0.36,0.39
		c-0.63,0.59-0.96,0.9-0.99,0.93l-1.51,1.34c-0.13,0.11-0.35,0.29-0.65,0.54c-0.31,0.25-0.49,0.4-0.55,0.44
		c-0.11,0.08-0.18,0.11-0.23,0.12c-0.03,0-0.06,0-0.09-0.02c-0.06-0.03-0.21-0.18-0.46-0.45l-0.3,0.27c0.42,0.43,0.71,0.75,0.9,0.95
		l1.24,1.46l0.28-0.25c-0.27-0.36-0.42-0.57-0.44-0.62c-0.02-0.06-0.03-0.11-0.02-0.15c0.02-0.06,0.14-0.2,0.36-0.42
		c0.22-0.22,0.62-0.59,1.2-1.09l0.4-0.36c0.12,0.13,0.21,0.23,0.26,0.28c0.34,0.38,0.57,0.68,0.7,0.88
		c0.05,0.08,0.06,0.15,0.05,0.19c-0.03,0.09-0.2,0.27-0.5,0.55L44.03,199.69 M47.79,197.84c0.26,0.29,0.4,0.48,0.42,0.56
		c0.01,0.04,0.01,0.07-0.01,0.11c-0.04,0.08-0.19,0.26-0.48,0.56l-0.71,0.74l-1.28,1.28l-1.03,0.98c-0.19,0.17-0.34,0.3-0.44,0.37
		c-0.05,0.04-0.1,0.06-0.12,0.07c-0.03,0.01-0.06,0-0.09-0.02c-0.06-0.03-0.23-0.17-0.5-0.42l-0.31,0.3
		c0.32,0.28,0.66,0.6,1.01,0.96c0.4,0.4,0.78,0.8,1.15,1.21l0.31-0.3c-0.22-0.23-0.34-0.36-0.38-0.42c-0.04-0.05-0.06-0.1-0.06-0.14
		c-0.01-0.04-0.01-0.07,0-0.1c0.02-0.05,0.09-0.15,0.22-0.29c0.06-0.07,0.32-0.34,0.79-0.82c0.38-0.39,0.74-0.76,1.09-1.11
		c0.22-0.22,0.66-0.65,1.32-1.28c0.29-0.28,0.49-0.46,0.57-0.54c0.13,0.09,0.25,0.19,0.36,0.3c0.25,0.25,0.4,0.44,0.47,0.57
		c0.09,0.21,0.12,0.43,0.08,0.67c-0.04,0.24-0.17,0.47-0.38,0.68c-0.21,0.21-0.45,0.35-0.71,0.42c-0.27,0.07-0.5,0.07-0.71,0
		c-0.21-0.08-0.44-0.26-0.71-0.54l-0.15,0.07c0.02,0.12,0.01,0.27-0.01,0.44c-0.05,0.35-0.15,0.8-0.28,1.36l-0.48,1.95
		c-0.04,0.12-0.07,0.22-0.11,0.28c0.2,0.16,0.39,0.34,0.57,0.52c0.16,0.15,0.4,0.42,0.74,0.79l0.31-0.31
		c-0.11-0.11-0.17-0.19-0.19-0.25c-0.02-0.05-0.03-0.12-0.03-0.2c0-0.08,0.03-0.32,0.09-0.72c0.01-0.03,0.04-0.22,0.11-0.57
		l0.26-1.33c0.01-0.04,0.01-0.07,0.03-0.1c0.01-0.04,0.03-0.15,0.07-0.32c0.03-0.18,0.07-0.35,0.12-0.51
		c0.49,0.23,0.94,0.31,1.34,0.26c0.4-0.06,0.74-0.22,1.02-0.5c0.23-0.23,0.37-0.5,0.41-0.79c0.04-0.29-0.01-0.55-0.14-0.78
		c-0.12-0.23-0.37-0.53-0.73-0.88c-0.18-0.18-0.42-0.41-0.72-0.68c-0.18-0.16-0.39-0.36-0.63-0.6c-0.28-0.28-0.5-0.5-0.64-0.66
		c-0.3-0.32-0.48-0.51-0.53-0.57L47.79,197.84 M48.72,207.76c0.77,0.64,1.18,1,1.24,1.04c0.22,0.19,0.61,0.55,1.18,1.07l0.57,0.53
		c0.29,0.26,0.52,0.44,0.69,0.56l0.09-0.01c0.28-0.31,0.65-0.68,1.13-1.12l-0.29-0.26c-0.34,0.28-0.58,0.47-0.73,0.55
		c-0.04,0.02-0.08,0.03-0.1,0.02c-0.08-0.01-0.24-0.11-0.47-0.28c-0.24-0.18-0.48-0.38-0.74-0.61c-0.27-0.24-0.49-0.45-0.67-0.65
		c0.09-0.13,0.22-0.28,0.37-0.45l1.35-1.52c0.17,0.12,0.38,0.28,0.62,0.49c0.26,0.23,0.47,0.44,0.61,0.62
		c0.07,0.08,0.09,0.16,0.08,0.23c-0.02,0.1-0.16,0.29-0.41,0.57l0.29,0.26l0.69-0.82l0.73-0.79l-0.29-0.26
		c-0.2,0.21-0.35,0.35-0.46,0.42c-0.04,0.03-0.08,0.04-0.12,0.03c-0.04,0-0.12-0.07-0.26-0.18c-0.35-0.3-0.56-0.47-0.61-0.52
		c-0.18-0.16-0.34-0.32-0.49-0.48l0.66-0.74c0.37-0.42,0.7-0.75,0.97-1c0.24,0.18,0.47,0.36,0.69,0.56
		c0.23,0.21,0.45,0.42,0.67,0.66c0.15,0.16,0.23,0.27,0.24,0.32c0.01,0.03,0,0.07-0.02,0.11c-0.04,0.08-0.18,0.26-0.43,0.55
		l0.28,0.25c0.3-0.29,0.47-0.46,0.5-0.5l0.53-0.46l0.02-0.07c-0.04-0.07-0.07-0.11-0.1-0.13c-0.26-0.25-0.43-0.41-0.52-0.48
		l-0.75-0.63c-0.42-0.35-0.79-0.68-1.12-0.97c-0.15-0.13-0.31-0.28-0.48-0.42l-0.85-0.74l-0.25,0.28c0.26,0.26,0.42,0.43,0.46,0.52
		c0.01,0.03,0.01,0.07,0,0.1c-0.03,0.08-0.16,0.26-0.39,0.55c-0.35,0.42-0.55,0.66-0.61,0.73l-1.45,1.64
		c-0.17,0.19-0.45,0.48-0.84,0.88c-0.21,0.22-0.37,0.37-0.48,0.46c-0.16-0.01-0.34-0.04-0.54-0.1L48.72,207.76 M54.83,212.94
		c0.23,0.18,0.64,0.51,1.24,1l0.6,0.5c0.3,0.23,0.54,0.41,0.72,0.52l0.09-0.01c0.26-0.33,0.61-0.72,1.07-1.18l-0.31-0.24
		c-0.32,0.3-0.55,0.5-0.7,0.58c-0.04,0.03-0.08,0.04-0.1,0.03c-0.08-0.01-0.24-0.09-0.49-0.26c-0.25-0.17-0.5-0.35-0.78-0.57
		c-0.28-0.22-0.52-0.43-0.71-0.61c0.09-0.14,0.2-0.3,0.34-0.48l1.26-1.59c0.18,0.1,0.39,0.26,0.64,0.45
		c0.28,0.22,0.5,0.41,0.65,0.58c0.07,0.07,0.1,0.15,0.09,0.23c-0.01,0.1-0.14,0.3-0.38,0.6l0.31,0.25l0.64-0.86l0.69-0.83
		l-0.31-0.25c-0.18,0.22-0.33,0.37-0.44,0.44c-0.04,0.03-0.08,0.04-0.12,0.04c-0.04-0.01-0.12-0.06-0.26-0.17
		c-0.37-0.28-0.58-0.44-0.64-0.48c-0.19-0.15-0.36-0.3-0.52-0.46l0.62-0.78c0.35-0.44,0.65-0.79,0.91-1.05
		c0.25,0.17,0.49,0.34,0.72,0.52c0.24,0.19,0.48,0.4,0.71,0.63c0.16,0.15,0.24,0.26,0.26,0.31c0.01,0.03,0,0.07-0.01,0.11
		c-0.04,0.08-0.17,0.28-0.4,0.58l0.3,0.23c0.28-0.31,0.44-0.48,0.47-0.52l0.51-0.5l0.01-0.07c-0.04-0.06-0.08-0.1-0.1-0.12
		c-0.27-0.23-0.45-0.38-0.55-0.45l-0.79-0.59c-0.43-0.33-0.82-0.63-1.17-0.91c-0.16-0.13-0.33-0.26-0.5-0.39l-0.89-0.69l-0.23,0.3
		c0.28,0.25,0.44,0.41,0.48,0.5c0.01,0.03,0.02,0.07,0.01,0.1c-0.02,0.09-0.14,0.27-0.36,0.57c-0.33,0.44-0.51,0.69-0.57,0.76
		l-1.36,1.72c-0.16,0.2-0.42,0.51-0.79,0.93c-0.2,0.23-0.35,0.39-0.45,0.48c-0.16,0-0.34-0.02-0.54-0.07l-0.16,0.2
		C54.34,212.56,54.77,212.89,54.83,212.94 M59.84,216.72c0.17,0.12,0.47,0.34,0.9,0.65c0.57,0.42,0.88,0.64,0.92,0.68
		c0.34,0.24,0.6,0.4,0.77,0.51c0.08,0.05,0.17,0.08,0.26,0.12c0.04-0.05,0.16-0.19,0.36-0.43l0.67-0.74
		c0.01-0.01,0.04-0.06,0.1-0.13l-0.33-0.23c-0.23,0.23-0.44,0.42-0.64,0.58c-0.08,0.06-0.14,0.1-0.17,0.1
		c-0.04,0-0.11-0.03-0.23-0.08c-0.34-0.16-0.7-0.38-1.1-0.66c-0.13-0.09-0.37-0.28-0.72-0.55c0.05-0.08,0.2-0.31,0.46-0.68
		c0.26-0.38,0.52-0.75,0.78-1.14c0.5-0.72,0.77-1.1,0.8-1.15c0.31-0.44,0.58-0.81,0.79-1.09c0.21-0.28,0.34-0.44,0.38-0.47
		c0.04-0.03,0.08-0.04,0.12-0.03c0.09,0.01,0.3,0.12,0.61,0.32l0.25-0.35c-0.45-0.28-0.91-0.59-1.4-0.93
		c-0.43-0.3-0.81-0.58-1.13-0.84l-0.25,0.35c0.34,0.26,0.52,0.43,0.55,0.51c0.02,0.04,0.02,0.07,0.01,0.11
		c-0.03,0.09-0.21,0.39-0.55,0.89c-0.13,0.2-0.49,0.72-1.08,1.56c-0.4,0.57-0.74,1.06-1.04,1.46c-0.29,0.4-0.47,0.63-0.53,0.69
		c-0.01,0.01-0.03,0.02-0.05,0.03c-0.03,0.01-0.09,0.01-0.17,0c-0.18-0.01-0.32-0.03-0.41-0.05l-0.15,0.21
		C59.18,216.27,59.58,216.54,59.84,216.72 M68.67,216.71c0.04-0.51,0.05-0.98,0.03-1.4c-0.01-0.29-0.03-0.49-0.06-0.61
		c-0.03-0.12-0.1-0.28-0.21-0.48c-0.18-0.06-0.36-0.11-0.53-0.17l-0.99-0.36L66.72,214c0.21,0.13,0.32,0.21,0.35,0.25
		c0.04,0.07,0.08,0.22,0.13,0.45c0.07,0.36,0.11,0.79,0.12,1.32c0.01,0.65,0,1.28-0.03,1.92c-0.02,0.27-0.04,0.43-0.08,0.49
		l-0.48,0.79c-0.14,0.22-0.31,0.48-0.52,0.79c-0.09,0.13-0.16,0.2-0.2,0.22c-0.04,0.01-0.09,0.01-0.15-0.01
		c-0.06-0.02-0.25-0.12-0.57-0.3l-0.23,0.37c0.44,0.23,0.86,0.48,1.27,0.73c0.42,0.26,0.89,0.56,1.4,0.91l0.23-0.36
		c-0.3-0.19-0.47-0.32-0.52-0.37c-0.05-0.05-0.07-0.1-0.08-0.15c-0.01-0.04,0.03-0.16,0.11-0.33c0.08-0.17,0.23-0.43,0.44-0.78
		l0.43-0.7c0.09-0.15,0.16-0.24,0.21-0.3c0.07-0.08,0.18-0.15,0.31-0.23c0.2-0.12,0.68-0.36,1.44-0.73
		c0.76-0.37,1.45-0.67,2.06-0.92l0.12-0.19l-0.66-0.4c-0.09,0.06-0.29,0.17-0.6,0.34c-0.91,0.5-1.46,0.8-1.64,0.9l-1.04,0.52
		C68.57,218.03,68.61,217.53,68.67,216.71 M76.81,222.77c0.01-0.18,0-0.69-0.01-1.51c0-0.51-0.03-0.98-0.09-1.4
		c-0.04-0.28-0.07-0.48-0.12-0.6c-0.04-0.12-0.13-0.27-0.26-0.46c-0.19-0.04-0.37-0.08-0.54-0.12l-1.01-0.28l-0.17,0.33
		c0.22,0.11,0.34,0.18,0.37,0.22c0.04,0.06,0.1,0.21,0.17,0.44c0.1,0.35,0.18,0.78,0.23,1.3c0.07,0.64,0.12,1.28,0.14,1.91
		c0.01,0.26-0.01,0.43-0.04,0.5l-0.41,0.82c-0.12,0.23-0.27,0.51-0.45,0.83c-0.08,0.14-0.14,0.22-0.18,0.24
		c-0.04,0.02-0.09,0.02-0.15,0.01c-0.07-0.01-0.26-0.1-0.6-0.25l-0.19,0.39c0.45,0.2,0.9,0.41,1.33,0.63
		c0.44,0.22,0.93,0.48,1.47,0.78l0.2-0.39c-0.32-0.17-0.5-0.27-0.55-0.32c-0.05-0.04-0.08-0.09-0.09-0.14
		c-0.01-0.05,0.02-0.16,0.09-0.34c0.07-0.18,0.19-0.45,0.37-0.82l0.37-0.73c0.07-0.15,0.14-0.26,0.19-0.31
		c0.07-0.08,0.16-0.17,0.29-0.26c0.19-0.13,0.65-0.42,1.37-0.85c0.73-0.43,1.39-0.8,1.98-1.09l0.1-0.2l-0.69-0.35
		c-0.08,0.07-0.27,0.2-0.57,0.39c-0.86,0.58-1.38,0.92-1.55,1.04L76.81,222.77 M78.47,227.55c0.93,0.37,1.44,0.58,1.51,0.61
		c0.27,0.11,0.75,0.33,1.46,0.65l0.71,0.33c0.35,0.15,0.63,0.26,0.83,0.31l0.08-0.04c0.17-0.38,0.41-0.85,0.72-1.41l-0.36-0.15
		c-0.23,0.37-0.41,0.62-0.52,0.74c-0.04,0.03-0.07,0.05-0.09,0.06c-0.08,0.01-0.26-0.03-0.54-0.12c-0.28-0.09-0.58-0.21-0.9-0.35
		c-0.33-0.14-0.61-0.27-0.84-0.4c0.05-0.16,0.12-0.34,0.2-0.55l0.8-1.87c0.2,0.06,0.44,0.15,0.74,0.28
		c0.32,0.14,0.58,0.27,0.78,0.39c0.09,0.05,0.13,0.12,0.14,0.19c0.01,0.1-0.06,0.33-0.21,0.67l0.36,0.15l0.4-0.99l0.45-0.98
		l-0.36-0.16c-0.12,0.27-0.22,0.44-0.31,0.54c-0.04,0.04-0.07,0.06-0.11,0.07c-0.04,0-0.14-0.03-0.3-0.09
		c-0.43-0.17-0.68-0.27-0.75-0.3c-0.22-0.09-0.42-0.2-0.62-0.31l0.39-0.91c0.22-0.52,0.42-0.93,0.61-1.25
		c0.29,0.09,0.56,0.2,0.83,0.31c0.28,0.12,0.56,0.26,0.85,0.42c0.19,0.11,0.3,0.18,0.33,0.22c0.02,0.03,0.02,0.07,0.02,0.11
		c-0.01,0.09-0.09,0.31-0.24,0.66l0.35,0.15c0.19-0.37,0.3-0.58,0.32-0.63l0.36-0.61l0-0.07c-0.06-0.05-0.11-0.08-0.14-0.09
		c-0.32-0.15-0.54-0.25-0.64-0.3l-0.92-0.37c-0.5-0.21-0.96-0.4-1.37-0.57c-0.19-0.08-0.38-0.16-0.59-0.25l-1.04-0.44l-0.15,0.35
		c0.34,0.17,0.53,0.28,0.6,0.35c0.02,0.03,0.03,0.06,0.04,0.09c0,0.09-0.07,0.3-0.2,0.64c-0.2,0.51-0.32,0.8-0.35,0.88l-0.86,2.01
		c-0.1,0.23-0.27,0.6-0.52,1.1c-0.13,0.27-0.23,0.47-0.31,0.58c-0.15,0.04-0.33,0.07-0.55,0.07L78.47,227.55 M89.45,225.19
		c0.02,0.03,0.04,0.06,0.04,0.1c0,0.09-0.06,0.32-0.18,0.71l-0.3,0.98l-0.57,1.72l-0.47,1.34c-0.09,0.24-0.16,0.42-0.23,0.53
		c-0.03,0.06-0.06,0.1-0.08,0.12c-0.02,0.01-0.05,0.02-0.09,0.02c-0.07,0-0.28-0.05-0.63-0.15l-0.13,0.41
		c0.41,0.11,0.86,0.24,1.33,0.39c0.53,0.18,1.06,0.36,1.58,0.56l0.14-0.41c-0.29-0.1-0.47-0.17-0.53-0.2
		c-0.06-0.03-0.1-0.07-0.12-0.09c-0.02-0.03-0.03-0.06-0.04-0.09c-0.01-0.06,0.01-0.18,0.06-0.35c0.02-0.09,0.13-0.45,0.33-1.09
		c0.16-0.52,0.32-1.01,0.47-1.47c0.1-0.29,0.3-0.87,0.6-1.74c0.14-0.38,0.23-0.63,0.27-0.74c0.15,0.02,0.31,0.06,0.45,0.11
		c0.34,0.11,0.56,0.21,0.68,0.3c0.18,0.14,0.3,0.33,0.38,0.56c0.07,0.23,0.06,0.5-0.03,0.78c-0.09,0.28-0.24,0.52-0.45,0.7
		c-0.21,0.18-0.42,0.29-0.63,0.31c-0.22,0.03-0.51-0.03-0.88-0.17l-0.1,0.14c0.07,0.1,0.13,0.23,0.19,0.4
		c0.11,0.34,0.23,0.78,0.36,1.34l0.45,1.96c0.02,0.13,0.03,0.23,0.03,0.3c0.25,0.05,0.5,0.12,0.74,0.2c0.21,0.07,0.55,0.2,1.02,0.38
		l0.14-0.41c-0.14-0.05-0.24-0.09-0.28-0.13c-0.04-0.04-0.08-0.09-0.12-0.16c-0.03-0.07-0.12-0.3-0.25-0.68
		c-0.01-0.03-0.06-0.22-0.16-0.56l-0.36-1.3c-0.01-0.03-0.02-0.07-0.03-0.1c-0.01-0.04-0.04-0.14-0.09-0.32
		c-0.05-0.18-0.09-0.35-0.13-0.51c0.54-0.02,0.98-0.15,1.31-0.37c0.33-0.23,0.56-0.53,0.68-0.9c0.1-0.31,0.11-0.61,0.01-0.88
		c-0.09-0.27-0.25-0.49-0.47-0.63c-0.22-0.15-0.57-0.31-1.05-0.46c-0.25-0.08-0.57-0.18-0.96-0.28c-0.23-0.06-0.51-0.15-0.84-0.25
		c-0.38-0.12-0.67-0.22-0.87-0.3c-0.42-0.15-0.66-0.24-0.73-0.27l-0.12,0.37C89.18,225.03,89.39,225.14,89.45,225.19 M95.72,233.7
		c0.28,0.08,0.79,0.22,1.54,0.42l0.75,0.22c0.37,0.09,0.66,0.16,0.87,0.18l0.07-0.04c0.11-0.4,0.28-0.9,0.51-1.51l-0.38-0.1
		c-0.18,0.41-0.31,0.68-0.41,0.82c-0.03,0.04-0.06,0.06-0.08,0.07c-0.08,0.02-0.26,0.01-0.55-0.04c-0.29-0.05-0.61-0.12-0.94-0.21
		c-0.35-0.09-0.64-0.18-0.89-0.28c0.02-0.16,0.07-0.35,0.12-0.57l0.52-1.97c0.2,0.02,0.46,0.08,0.77,0.16
		c0.34,0.09,0.62,0.18,0.83,0.28c0.09,0.04,0.15,0.1,0.17,0.17c0.03,0.1-0.01,0.33-0.11,0.7l0.38,0.1l0.25-1.04l0.3-1.04l-0.38-0.1
		c-0.08,0.28-0.15,0.47-0.22,0.58c-0.03,0.05-0.06,0.07-0.09,0.08c-0.03,0.01-0.14,0-0.31-0.04c-0.45-0.11-0.71-0.16-0.78-0.18
		c-0.23-0.06-0.45-0.13-0.66-0.21l0.25-0.96c0.14-0.54,0.28-0.99,0.42-1.33c0.3,0.05,0.59,0.11,0.86,0.19
		c0.3,0.08,0.6,0.17,0.9,0.29c0.2,0.08,0.32,0.14,0.36,0.17c0.02,0.03,0.03,0.06,0.03,0.11c0,0.09-0.04,0.32-0.13,0.69l0.37,0.1
		c0.13-0.4,0.21-0.62,0.23-0.67l0.27-0.66l-0.02-0.07c-0.07-0.04-0.12-0.07-0.15-0.07c-0.34-0.1-0.57-0.17-0.68-0.2l-0.96-0.23
		c-0.53-0.13-1.01-0.25-1.43-0.36c-0.2-0.05-0.4-0.1-0.62-0.16l-1.09-0.28l-0.09,0.37c0.35,0.11,0.57,0.2,0.64,0.26
		c0.03,0.03,0.04,0.06,0.05,0.09c0.01,0.09-0.02,0.31-0.11,0.67c-0.12,0.53-0.19,0.84-0.21,0.92l-0.55,2.12
		c-0.06,0.25-0.18,0.63-0.35,1.17c-0.09,0.29-0.16,0.5-0.22,0.63c-0.14,0.07-0.32,0.11-0.53,0.15l-0.07,0.25
		C95.12,233.56,95.65,233.68,95.72,233.7 M106.75,235.29l-0.1-0.13c-0.38,0.11-0.71,0.17-1.02,0.19c-0.31,0.02-0.62-0.01-0.95-0.07
		c-0.5-0.1-0.9-0.26-1.22-0.48c-0.23-0.17-0.45-0.4-0.65-0.7c-0.2-0.3-0.34-0.66-0.42-1.07c-0.08-0.41-0.06-0.87,0.04-1.39
		c0.17-0.85,0.52-1.47,1.07-1.85c0.54-0.39,1.19-0.5,1.94-0.36c0.42,0.08,0.75,0.2,0.99,0.37c0.25,0.16,0.45,0.37,0.63,0.63
		c-0.02,0.21-0.06,0.49-0.12,0.84l0.37,0.07c0.07-0.3,0.16-0.62,0.28-0.96c0.07-0.22,0.15-0.39,0.23-0.53l-0.01-0.07
		c-0.42-0.25-0.79-0.44-1.13-0.57c-0.33-0.13-0.71-0.24-1.14-0.32c-1.25-0.25-2.28-0.12-3.09,0.38c-0.81,0.5-1.31,1.25-1.51,2.25
		c-0.12,0.58-0.11,1.15,0.03,1.7c0.09,0.36,0.25,0.71,0.47,1.05c0.23,0.34,0.53,0.63,0.9,0.89c0.48,0.31,1.05,0.54,1.73,0.67
		c0.47,0.09,0.88,0.13,1.21,0.12c0.33-0.01,0.72-0.09,1.15-0.22L106.75,235.29 M109.37,236.48c0.29,0.04,0.82,0.11,1.58,0.23
		l0.77,0.12c0.38,0.05,0.67,0.08,0.88,0.08l0.07-0.06c0.05-0.41,0.16-0.93,0.31-1.56l-0.39-0.05c-0.12,0.43-0.22,0.71-0.3,0.86
		c-0.03,0.04-0.05,0.07-0.07,0.08c-0.07,0.03-0.26,0.04-0.55,0.02c-0.3-0.01-0.62-0.05-0.96-0.09c-0.36-0.05-0.66-0.1-0.92-0.16
		c0-0.16,0.02-0.36,0.05-0.58l0.26-2.02c0.21,0,0.47,0.02,0.79,0.07c0.35,0.05,0.63,0.1,0.85,0.17c0.1,0.03,0.16,0.08,0.19,0.15
		c0.04,0.09,0.04,0.33-0.02,0.7l0.39,0.05l0.12-1.06l0.17-1.06l-0.39-0.05c-0.05,0.28-0.09,0.49-0.15,0.6
		c-0.02,0.04-0.05,0.08-0.08,0.09c-0.03,0.01-0.14,0.01-0.31-0.01c-0.46-0.05-0.72-0.08-0.8-0.09c-0.23-0.03-0.46-0.08-0.68-0.13
		l0.13-0.98c0.07-0.56,0.16-1.01,0.25-1.37c0.3,0.01,0.6,0.04,0.88,0.08c0.31,0.04,0.62,0.1,0.93,0.18
		c0.21,0.05,0.34,0.09,0.37,0.13c0.02,0.02,0.04,0.06,0.04,0.1c0.01,0.09-0.01,0.32-0.05,0.7l0.38,0.05
		c0.08-0.41,0.13-0.64,0.14-0.69l0.18-0.69l-0.02-0.07c-0.07-0.03-0.12-0.05-0.16-0.05c-0.35-0.06-0.58-0.1-0.7-0.11l-0.98-0.11
		c-0.54-0.06-1.03-0.12-1.47-0.18c-0.2-0.03-0.41-0.05-0.63-0.08l-1.12-0.14l-0.05,0.38c0.37,0.07,0.59,0.13,0.67,0.18
		c0.03,0.02,0.05,0.05,0.06,0.08c0.02,0.09,0.02,0.31-0.02,0.67c-0.05,0.55-0.09,0.86-0.1,0.94l-0.29,2.17
		c-0.03,0.25-0.1,0.65-0.2,1.2c-0.05,0.3-0.1,0.52-0.14,0.65c-0.13,0.08-0.3,0.15-0.5,0.22l-0.03,0.26
		C108.76,236.41,109.29,236.47,109.37,236.48 M117.64,230.56c-0.53-0.02-1.09-0.05-1.68-0.1c-0.53-0.04-0.99-0.1-1.4-0.16
		l-0.04,0.43c0.35,0.04,0.55,0.07,0.6,0.09c0.05,0.02,0.09,0.04,0.11,0.07c0.02,0.03,0.03,0.06,0.04,0.1
		c0.01,0.1,0.01,0.36-0.01,0.77c0,0.18-0.02,0.6-0.08,1.24l-0.17,2.03c-0.03,0.33-0.07,0.69-0.11,1.07
		c-0.04,0.27-0.07,0.42-0.08,0.46c-0.01,0.03-0.03,0.05-0.06,0.07c-0.03,0.02-0.08,0.03-0.15,0.04c-0.05,0-0.25,0-0.6-0.02
		l-0.04,0.43c0.41,0.01,0.88,0.04,1.39,0.08c0.6,0.05,1.16,0.11,1.69,0.18l0.04-0.43c-0.31-0.03-0.5-0.06-0.56-0.08
		c-0.07-0.02-0.11-0.04-0.14-0.07c-0.03-0.03-0.05-0.07-0.06-0.11c-0.03-0.1-0.02-0.32,0.01-0.65l0.05-0.89l0.16-1.95
		c0.01-0.06,0.05-0.49,0.12-1.28c0.02-0.23,0.04-0.39,0.05-0.47c0.02-0.15,0.05-0.26,0.07-0.31c0.01-0.03,0.03-0.06,0.06-0.07
		c0.03-0.02,0.07-0.03,0.14-0.04c0.07-0.01,0.26-0.01,0.59,0.01L117.64,230.56 M121.32,237.59l0.73,0.02
		c0.21-0.55,0.62-1.48,1.22-2.8l0.7-1.55l0.37-0.79c0.3-0.66,0.49-1.02,0.58-1.09c0.05-0.04,0.24-0.07,0.55-0.09l0.01-0.43
		l-1.05,0.01l-1.23-0.08l-0.01,0.43c0.14,0.01,0.32,0.03,0.53,0.05c0.09,0.01,0.15,0.02,0.17,0.03c0.03,0.01,0.05,0.03,0.07,0.06
		c0.02,0.03,0.03,0.07,0.02,0.12c0,0.04,0,0.08-0.01,0.12c-0.04,0.13-0.13,0.39-0.29,0.77c-0.22,0.55-0.35,0.85-0.38,0.91
		l-1.17,2.65l-1.14-3.05c-0.01-0.04-0.02-0.07-0.03-0.09c-0.01-0.02-0.07-0.18-0.18-0.49c-0.2-0.52-0.29-0.84-0.29-0.93
		c0-0.05,0.02-0.09,0.05-0.12c0.03-0.03,0.08-0.05,0.15-0.07c0.12-0.02,0.32-0.04,0.59-0.03l0.01-0.43l-1.74-0.01
		c-0.17,0-0.64-0.03-1.41-0.08l-0.01,0.43c0.31,0.02,0.51,0.05,0.6,0.11c0.07,0.04,0.15,0.18,0.27,0.44
		c0.12,0.25,0.43,1.03,0.93,2.34l0.64,1.66C120.82,236.24,121.06,236.9,121.32,237.59 M126.5,237.63c1-0.06,1.54-0.09,1.62-0.09
		c0.29-0.01,0.82-0.02,1.59-0.03l0.78-0.01c0.38-0.01,0.67-0.04,0.88-0.07l0.06-0.07c-0.01-0.42,0-0.95,0.06-1.59l-0.39,0.01
		c-0.05,0.44-0.1,0.74-0.15,0.9c-0.02,0.05-0.04,0.08-0.06,0.09c-0.07,0.04-0.24,0.08-0.54,0.12c-0.29,0.03-0.61,0.06-0.96,0.07
		c-0.36,0.01-0.67,0.01-0.93-0.01c-0.02-0.17-0.04-0.36-0.04-0.59l-0.07-2.03c0.21-0.03,0.47-0.05,0.79-0.07
		c0.35-0.01,0.64,0,0.87,0.02c0.1,0.01,0.17,0.05,0.22,0.12c0.05,0.09,0.09,0.32,0.09,0.7l0.39-0.01l-0.06-1.07l-0.01-1.08
		l-0.39,0.01c0,0.29-0.01,0.49-0.05,0.62c-0.01,0.05-0.04,0.09-0.07,0.11c-0.03,0.02-0.13,0.03-0.31,0.04
		c-0.46,0.03-0.73,0.05-0.8,0.05c-0.24,0.01-0.47,0-0.69-0.02l-0.03-1c-0.02-0.56-0.01-1.02,0.02-1.39c0.3-0.03,0.6-0.06,0.88-0.07
		c0.31-0.01,0.62,0,0.94,0.02c0.22,0.01,0.35,0.04,0.39,0.07c0.03,0.01,0.05,0.05,0.06,0.09c0.03,0.09,0.05,0.32,0.07,0.7l0.38-0.01
		c0.01-0.42,0.02-0.66,0.02-0.7l0.07-0.7l-0.04-0.06c-0.07-0.02-0.13-0.03-0.16-0.03c-0.36,0-0.59,0-0.71,0l-0.98,0.05
		c-0.54,0.03-1.04,0.05-1.48,0.07c-0.2,0.01-0.42,0.01-0.64,0.02l-1.13,0.05l0.01,0.38c0.37,0.01,0.6,0.03,0.69,0.07
		c0.03,0.01,0.06,0.03,0.08,0.07c0.04,0.08,0.07,0.3,0.09,0.67c0.04,0.55,0.06,0.86,0.06,0.95l0.07,2.19c0.01,0.25,0.01,0.66,0,1.21
		c0,0.31-0.01,0.53-0.03,0.66c-0.12,0.1-0.27,0.2-0.46,0.3L126.5,237.63 M135.12,236.58c-0.07-0.3-0.15-0.93-0.25-1.89l-0.11-1.11
		c-0.13-1.26-0.2-2.13-0.22-2.59c0.29-0.08,0.57-0.14,0.81-0.16c0.66-0.07,1.16-0.06,1.5,0.02c0.34,0.08,0.62,0.24,0.86,0.48
		c0.24,0.23,0.43,0.52,0.55,0.85c0.13,0.34,0.21,0.69,0.25,1.05c0.04,0.41,0.03,0.79-0.02,1.14c-0.06,0.36-0.16,0.67-0.3,0.94
		c-0.15,0.27-0.3,0.48-0.47,0.63c-0.17,0.15-0.38,0.27-0.61,0.36c-0.32,0.12-0.7,0.21-1.13,0.26
		C135.71,236.59,135.43,236.6,135.12,236.58 M134.71,237.18l1.44-0.11c0.65-0.07,1.2-0.2,1.64-0.39c0.44-0.19,0.85-0.47,1.21-0.83
		c0.36-0.37,0.63-0.81,0.8-1.31c0.18-0.51,0.23-1.07,0.17-1.68c-0.05-0.49-0.17-0.92-0.36-1.31c-0.12-0.24-0.27-0.45-0.47-0.64
		c-0.2-0.19-0.43-0.35-0.7-0.48c-0.27-0.13-0.58-0.21-0.93-0.24c-0.35-0.04-0.81-0.02-1.38,0.04c-0.25,0.02-0.58,0.07-0.99,0.12
		c-0.57,0.08-0.95,0.13-1.16,0.15l-1.75,0.14l0.04,0.39c0.35,0.01,0.55,0.02,0.61,0.02c0.06,0.01,0.1,0.02,0.13,0.05
		c0.02,0.02,0.03,0.04,0.04,0.07c0.05,0.12,0.09,0.41,0.15,0.86c0.1,0.82,0.17,1.45,0.22,1.87l0.08,0.79
		c0.1,0.97,0.16,1.68,0.17,2.11c-0.09,0.09-0.2,0.17-0.31,0.25c-0.06,0.04-0.1,0.07-0.13,0.09l0.03,0.23L134.71,237.18z
		 M145.84,230.41c-0.24,0.04-0.45,0.15-0.65,0.32c-0.2,0.16-0.34,0.37-0.42,0.62c-0.08,0.25-0.1,0.5-0.05,0.74
		c0.05,0.24,0.16,0.46,0.32,0.66c0.17,0.2,0.37,0.34,0.62,0.42c0.25,0.08,0.49,0.09,0.73,0.05c0.24-0.05,0.46-0.15,0.66-0.32
		c0.2-0.16,0.33-0.37,0.42-0.62c0.08-0.25,0.1-0.5,0.05-0.74c-0.04-0.24-0.15-0.46-0.32-0.66c-0.17-0.2-0.38-0.34-0.63-0.42
		C146.32,230.38,146.08,230.37,145.84,230.41 M156.16,228.62l-0.42,0.12c0.07,0.28,0.1,0.46,0.09,0.54c0,0.07-0.02,0.11-0.06,0.13
		c-0.09,0.07-0.34,0.15-0.75,0.27c-0.14,0.04-0.41,0.1-0.81,0.19l-0.18-0.64c-0.23-0.81-0.36-1.37-0.42-1.68
		c0.09-0.03,0.25-0.08,0.48-0.16c0.24-0.08,0.38-0.12,0.44-0.14c0.27-0.08,0.52-0.12,0.73-0.15c0.21-0.02,0.35-0.02,0.42,0
		c0.02,0,0.04,0.02,0.06,0.03c0.02,0.02,0.05,0.1,0.09,0.23c0.09,0.26,0.14,0.42,0.16,0.49l0.38-0.11
		c-0.06-0.21-0.11-0.45-0.16-0.73c-0.05-0.28-0.09-0.52-0.11-0.7l-0.06-0.05c-0.29,0.05-0.59,0.11-0.91,0.2l-2.24,0.68l-1.67,0.43
		l0.11,0.39c0.3-0.07,0.49-0.1,0.57-0.1c0.07,0,0.12,0,0.14,0.01c0.03,0.01,0.05,0.04,0.07,0.07c0.06,0.09,0.12,0.26,0.19,0.5
		c0.26,0.82,0.39,1.26,0.41,1.3l0.54,1.94c0.05,0.16,0.11,0.44,0.2,0.82c0.09,0.38,0.14,0.61,0.15,0.69c0.02,0.13,0.02,0.22,0,0.26
		c-0.01,0.03-0.03,0.05-0.06,0.07c-0.05,0.04-0.25,0.11-0.61,0.22l0.11,0.39c0.57-0.19,0.98-0.32,1.25-0.39l1.85-0.48l-0.11-0.37
		c-0.44,0.09-0.69,0.13-0.75,0.13c-0.06,0-0.11-0.02-0.14-0.05c-0.04-0.04-0.12-0.21-0.22-0.5c-0.1-0.29-0.26-0.81-0.46-1.56
		l-0.15-0.52c0.18-0.05,0.3-0.09,0.37-0.11c0.5-0.14,0.86-0.22,1.1-0.24c0.09-0.01,0.16,0.01,0.19,0.04
		c0.07,0.07,0.16,0.3,0.28,0.69l0.42-0.12C156.5,229.83,156.31,229.15,156.16,228.62 M157.38,226.33c0.04,0.01,0.07,0.03,0.09,0.06
		c0.06,0.07,0.15,0.29,0.29,0.67l0.36,0.96l0.59,1.71l0.44,1.36c0.07,0.25,0.12,0.43,0.14,0.56c0.01,0.07,0.02,0.11,0.01,0.14
		c-0.01,0.03-0.03,0.05-0.07,0.07c-0.06,0.04-0.26,0.13-0.6,0.26l0.14,0.41c0.39-0.16,0.83-0.33,1.3-0.49
		c0.53-0.18,1.06-0.35,1.59-0.51l-0.14-0.41c-0.3,0.09-0.48,0.15-0.54,0.16c-0.07,0.01-0.12,0.01-0.15,0
		c-0.03-0.01-0.06-0.03-0.08-0.05c-0.04-0.04-0.1-0.15-0.17-0.32c-0.04-0.08-0.17-0.44-0.39-1.07c-0.19-0.51-0.36-1-0.52-1.46
		c-0.1-0.29-0.29-0.88-0.58-1.75c-0.12-0.39-0.2-0.64-0.23-0.75c0.14-0.08,0.28-0.14,0.43-0.19c0.33-0.11,0.57-0.17,0.72-0.17
		c0.23,0,0.44,0.08,0.64,0.22c0.2,0.14,0.35,0.35,0.45,0.63c0.09,0.28,0.12,0.56,0.07,0.83c-0.05,0.27-0.16,0.48-0.31,0.63
		c-0.16,0.15-0.42,0.29-0.8,0.4l0,0.17c0.11,0.04,0.25,0.11,0.39,0.21c0.29,0.2,0.65,0.49,1.1,0.85l1.55,1.28
		c0.09,0.09,0.16,0.17,0.2,0.23c0.24-0.11,0.47-0.21,0.72-0.29c0.21-0.07,0.56-0.18,1.04-0.31l-0.14-0.41
		c-0.15,0.05-0.24,0.07-0.3,0.06c-0.06,0-0.12-0.02-0.19-0.06c-0.07-0.03-0.28-0.17-0.61-0.39c-0.02-0.02-0.18-0.13-0.46-0.35
		l-1.08-0.82c-0.03-0.02-0.06-0.04-0.09-0.07c-0.03-0.02-0.12-0.09-0.26-0.2c-0.15-0.11-0.28-0.22-0.41-0.33
		c0.42-0.34,0.69-0.71,0.82-1.09c0.12-0.38,0.12-0.76,0-1.13c-0.11-0.32-0.28-0.55-0.53-0.71c-0.24-0.16-0.5-0.23-0.76-0.22
		c-0.26,0.01-0.63,0.1-1.11,0.26c-0.25,0.09-0.56,0.2-0.93,0.35c-0.23,0.09-0.5,0.2-0.82,0.31c-0.38,0.13-0.67,0.23-0.87,0.29
		c-0.43,0.13-0.68,0.2-0.74,0.23l0.13,0.37C157.07,226.36,157.3,226.32,157.38,226.33 M166,229.97c0.92-0.41,1.41-0.63,1.49-0.66
		c0.27-0.11,0.76-0.31,1.48-0.59l0.73-0.28c0.35-0.15,0.62-0.27,0.8-0.38l0.04-0.08c-0.16-0.38-0.33-0.88-0.51-1.51l-0.36,0.15
		c0.11,0.43,0.17,0.73,0.18,0.89c0,0.05-0.01,0.08-0.02,0.11c-0.05,0.07-0.2,0.16-0.46,0.3c-0.26,0.13-0.56,0.27-0.88,0.4
		c-0.33,0.14-0.62,0.25-0.87,0.32c-0.08-0.14-0.16-0.32-0.25-0.53l-0.78-1.88c0.18-0.1,0.42-0.21,0.71-0.34
		c0.33-0.13,0.6-0.23,0.83-0.28c0.1-0.02,0.18-0.01,0.24,0.03c0.09,0.06,0.2,0.27,0.34,0.62l0.36-0.15l-0.44-0.98l-0.39-1.01
		l-0.36,0.15c0.11,0.27,0.16,0.47,0.17,0.6c0,0.05-0.01,0.09-0.03,0.12c-0.02,0.03-0.11,0.08-0.27,0.15
		c-0.42,0.19-0.67,0.3-0.73,0.33c-0.22,0.09-0.44,0.17-0.65,0.23l-0.38-0.92c-0.21-0.52-0.37-0.96-0.47-1.31
		c0.27-0.14,0.53-0.26,0.8-0.38c0.28-0.12,0.58-0.22,0.89-0.31c0.21-0.06,0.34-0.09,0.39-0.08c0.03,0.01,0.06,0.03,0.09,0.07
		c0.06,0.07,0.16,0.28,0.31,0.63l0.35-0.14c-0.13-0.4-0.21-0.62-0.23-0.67l-0.18-0.69l-0.06-0.04c-0.08,0.01-0.13,0.02-0.16,0.03
		c-0.34,0.12-0.56,0.21-0.67,0.26l-0.9,0.4c-0.5,0.22-0.95,0.41-1.36,0.58c-0.19,0.08-0.39,0.16-0.59,0.25l-1.04,0.44l0.15,0.35
		c0.35-0.12,0.57-0.18,0.67-0.18c0.04,0,0.07,0.01,0.09,0.04c0.06,0.06,0.17,0.26,0.32,0.59c0.23,0.5,0.36,0.79,0.39,0.87l0.84,2.02
		c0.1,0.23,0.24,0.61,0.43,1.14c0.1,0.28,0.17,0.5,0.2,0.63c-0.07,0.14-0.18,0.28-0.33,0.44L166,229.97 M171.87,227.49
		c0.89-0.46,1.37-0.71,1.44-0.74c0.26-0.13,0.74-0.35,1.44-0.68l0.71-0.32c0.35-0.17,0.61-0.31,0.78-0.42l0.03-0.09
		c-0.18-0.37-0.38-0.86-0.59-1.47l-0.35,0.17c0.13,0.42,0.2,0.72,0.22,0.88c0,0.05,0,0.09-0.02,0.1c-0.04,0.07-0.19,0.18-0.44,0.33
		c-0.26,0.15-0.54,0.3-0.85,0.45c-0.32,0.15-0.61,0.28-0.85,0.37c-0.09-0.14-0.18-0.31-0.28-0.52l-0.88-1.83
		c0.17-0.12,0.4-0.24,0.69-0.38c0.32-0.15,0.59-0.26,0.8-0.33c0.1-0.03,0.18-0.02,0.24,0.01c0.09,0.06,0.21,0.26,0.37,0.6l0.35-0.17
		l-0.49-0.95l-0.45-0.98l-0.35,0.17c0.12,0.26,0.19,0.46,0.21,0.59c0.01,0.05,0,0.09-0.02,0.12c-0.02,0.03-0.11,0.09-0.26,0.16
		c-0.41,0.21-0.65,0.34-0.72,0.37c-0.21,0.1-0.42,0.19-0.63,0.26l-0.43-0.89c-0.25-0.51-0.43-0.93-0.55-1.28
		c0.26-0.16,0.52-0.3,0.78-0.42c0.28-0.13,0.57-0.26,0.87-0.36c0.21-0.07,0.33-0.11,0.38-0.1c0.03,0.01,0.06,0.02,0.1,0.06
		c0.06,0.07,0.17,0.27,0.35,0.61l0.34-0.17c-0.16-0.39-0.25-0.61-0.26-0.65l-0.23-0.67l-0.06-0.04c-0.08,0.01-0.13,0.03-0.16,0.04
		c-0.33,0.14-0.54,0.24-0.65,0.29l-0.88,0.45c-0.48,0.24-0.93,0.46-1.33,0.66c-0.18,0.09-0.38,0.18-0.58,0.28l-1.01,0.5l0.17,0.34
		c0.34-0.15,0.56-0.22,0.66-0.22c0.04,0,0.07,0.01,0.1,0.03c0.07,0.06,0.18,0.25,0.35,0.58c0.26,0.49,0.4,0.77,0.44,0.84l0.95,1.97
		c0.11,0.23,0.27,0.6,0.49,1.11c0.12,0.28,0.2,0.48,0.24,0.62c-0.07,0.14-0.17,0.29-0.3,0.46L171.87,227.49 M178.89,223.9
		c0.18-0.1,0.51-0.28,0.98-0.53c0.62-0.33,0.96-0.51,1.01-0.54c0.36-0.2,0.63-0.36,0.79-0.47c0.07-0.05,0.15-0.11,0.22-0.18
		c-0.03-0.06-0.1-0.23-0.23-0.51l-0.37-0.92c-0.01-0.01-0.03-0.06-0.07-0.15l-0.35,0.2c0.1,0.31,0.18,0.58,0.24,0.83
		c0.02,0.1,0.03,0.16,0.01,0.2c-0.01,0.03-0.07,0.09-0.17,0.17c-0.29,0.23-0.65,0.47-1.08,0.7c-0.14,0.08-0.41,0.21-0.81,0.41
		c-0.05-0.08-0.19-0.32-0.42-0.71c-0.22-0.4-0.45-0.8-0.68-1.2c-0.43-0.77-0.66-1.17-0.69-1.23c-0.27-0.47-0.48-0.87-0.64-1.18
		c-0.16-0.32-0.25-0.5-0.26-0.54c-0.01-0.04,0-0.09,0.02-0.12c0.05-0.08,0.23-0.21,0.55-0.41l-0.21-0.38
		c-0.45,0.28-0.93,0.56-1.45,0.85c-0.46,0.25-0.88,0.47-1.25,0.65l0.21,0.38c0.38-0.19,0.61-0.28,0.7-0.28
		c0.04,0,0.08,0.01,0.11,0.04c0.07,0.06,0.26,0.36,0.56,0.89c0.12,0.2,0.43,0.75,0.93,1.65c0.34,0.61,0.62,1.13,0.86,1.57
		c0.24,0.44,0.36,0.7,0.39,0.77c0.01,0.02,0.01,0.04,0,0.06c-0.01,0.03-0.03,0.08-0.07,0.15c-0.09,0.15-0.17,0.27-0.23,0.34
		l0.12,0.22C178.2,224.31,178.61,224.06,178.89,223.9 M182.72,215.96c-0.44-0.26-0.86-0.48-1.25-0.64
		c-0.26-0.11-0.45-0.19-0.58-0.21c-0.12-0.02-0.3-0.03-0.52-0.02c-0.13,0.14-0.26,0.27-0.38,0.4l-0.76,0.73l0.2,0.31
		c0.21-0.13,0.33-0.2,0.38-0.21c0.08-0.01,0.23,0.02,0.46,0.08c0.35,0.1,0.76,0.25,1.24,0.47c0.58,0.27,1.15,0.56,1.71,0.86
		c0.23,0.13,0.37,0.23,0.41,0.29l0.5,0.78c0.14,0.22,0.3,0.49,0.48,0.81c0.08,0.14,0.12,0.23,0.11,0.27c0,0.04-0.03,0.08-0.07,0.13
		c-0.05,0.04-0.22,0.17-0.52,0.38l0.23,0.36c0.4-0.29,0.81-0.56,1.22-0.82c0.42-0.27,0.89-0.55,1.42-0.86l-0.23-0.37
		c-0.31,0.19-0.5,0.29-0.56,0.31c-0.07,0.02-0.12,0.02-0.17,0c-0.04-0.02-0.13-0.1-0.25-0.25c-0.12-0.15-0.29-0.39-0.51-0.74
		l-0.44-0.69c-0.09-0.14-0.15-0.25-0.17-0.32c-0.04-0.1-0.06-0.23-0.08-0.38c-0.02-0.23-0.03-0.77-0.03-1.62
		c0-0.85,0.03-1.6,0.08-2.26l-0.12-0.19l-0.65,0.42c0.01,0.1,0.03,0.33,0.04,0.69c0.05,1.04,0.09,1.66,0.09,1.87l0.01,1.16
		C183.87,216.63,183.43,216.38,182.72,215.96 M192.67,207.04l-0.09-0.05c-0.28,0.07-0.64,0.21-1.08,0.42
		c-0.44,0.21-0.87,0.49-1.31,0.83c-0.35,0.27-0.65,0.56-0.9,0.85c-0.25,0.29-0.45,0.61-0.61,0.96c-0.16,0.35-0.26,0.72-0.3,1.11
		c-0.04,0.39,0,0.78,0.12,1.17c0.11,0.39,0.33,0.79,0.64,1.19c0.37,0.48,0.8,0.84,1.28,1.09c0.31,0.16,0.66,0.26,1.05,0.31
		c0.39,0.04,0.79,0.02,1.21-0.09c0.59-0.15,1.18-0.44,1.75-0.89c0.35-0.27,0.68-0.59,0.98-0.93c0.3-0.35,0.62-0.79,0.96-1.33
		c-0.18-0.19-0.34-0.38-0.49-0.57c-0.1-0.13-0.26-0.34-0.47-0.64c-0.09-0.12-0.13-0.2-0.12-0.24c0-0.09,0.07-0.21,0.19-0.35
		l-0.2-0.26l-1.14,0.93l-1.17,0.86l0.24,0.31c0.42-0.28,0.68-0.45,0.79-0.49c0.07-0.03,0.12-0.03,0.15-0.02
		c0.06,0.03,0.18,0.17,0.37,0.42c0.03,0.04,0.13,0.16,0.27,0.36c0.15,0.2,0.25,0.34,0.29,0.41c-0.1,0.19-0.22,0.37-0.35,0.54
		c-0.13,0.16-0.28,0.31-0.46,0.45c-0.59,0.46-1.26,0.62-2.01,0.49c-0.75-0.13-1.43-0.58-2.02-1.35c-0.54-0.7-0.77-1.4-0.7-2.09
		c0.08-0.7,0.43-1.3,1.07-1.79c0.28-0.21,0.55-0.37,0.81-0.48c0.27-0.1,0.53-0.17,0.78-0.18c0.11-0.01,0.23,0,0.35,0.03
		c0.08,0.07,0.17,0.15,0.26,0.26c0.13,0.15,0.23,0.27,0.3,0.35l0.31-0.24C193.04,207.75,192.78,207.31,192.67,207.04 M195.74,203.75
		c-0.38,0.36-0.79,0.74-1.24,1.13c-0.4,0.35-0.76,0.65-1.09,0.9l0.28,0.33c0.27-0.22,0.43-0.34,0.48-0.37
		c0.05-0.03,0.09-0.04,0.12-0.04c0.03,0.01,0.06,0.02,0.1,0.05c0.09,0.06,0.27,0.24,0.55,0.54c0.13,0.13,0.42,0.44,0.84,0.92
		l1.33,1.53c0.22,0.25,0.45,0.53,0.69,0.83c0.17,0.21,0.25,0.33,0.27,0.37c0.01,0.03,0.02,0.06,0.02,0.09
		c-0.01,0.03-0.03,0.08-0.07,0.13c-0.03,0.04-0.18,0.18-0.43,0.42l0.28,0.33c0.29-0.29,0.63-0.6,1.03-0.95
		c0.45-0.39,0.89-0.76,1.3-1.08l-0.28-0.32c-0.24,0.2-0.39,0.32-0.45,0.35c-0.06,0.03-0.11,0.05-0.15,0.05
		c-0.04,0-0.08-0.01-0.12-0.04c-0.09-0.06-0.25-0.21-0.47-0.46l-0.6-0.66l-1.28-1.47c-0.04-0.05-0.32-0.37-0.84-0.98
		c-0.15-0.18-0.25-0.3-0.31-0.37c-0.09-0.12-0.15-0.21-0.17-0.27c-0.01-0.03-0.02-0.07-0.01-0.1c0-0.03,0.02-0.07,0.06-0.13
		c0.04-0.05,0.18-0.19,0.42-0.41L195.74,203.75 M203.32,206.03l0.53-0.51c-0.25-0.53-0.63-1.48-1.16-2.82l-0.62-1.58l-0.31-0.82
		c-0.27-0.67-0.39-1.06-0.37-1.17c0.01-0.07,0.12-0.22,0.32-0.46l-0.3-0.31l-0.73,0.76l-0.91,0.83l0.3,0.31
		c0.1-0.1,0.24-0.22,0.41-0.35c0.07-0.06,0.12-0.1,0.15-0.11c0.03-0.01,0.06-0.01,0.09-0.01c0.03,0.01,0.07,0.03,0.11,0.07
		c0.03,0.03,0.05,0.06,0.07,0.09c0.07,0.12,0.19,0.37,0.35,0.74c0.24,0.54,0.37,0.84,0.39,0.91l1.09,2.68l-2.98-1.3
		c-0.03-0.02-0.06-0.03-0.09-0.04c-0.02-0.01-0.18-0.08-0.48-0.21c-0.52-0.23-0.81-0.37-0.88-0.44c-0.03-0.04-0.05-0.07-0.05-0.11
		c0-0.04,0.02-0.09,0.06-0.15c0.07-0.1,0.2-0.26,0.39-0.45l-0.3-0.31l-1.22,1.24c-0.12,0.12-0.47,0.44-1.04,0.96l0.3,0.31
		c0.22-0.2,0.39-0.33,0.5-0.36c0.07-0.02,0.24,0.02,0.5,0.1c0.26,0.09,1.04,0.41,2.33,0.96l1.65,0.7
		C202.01,205.45,202.65,205.73,203.32,206.03 M207.92,201.2c0.2-0.22,0.56-0.61,1.09-1.17l0.54-0.57c0.26-0.28,0.44-0.51,0.56-0.68
		l0-0.09c-0.31-0.28-0.68-0.66-1.1-1.15l-0.26,0.29c0.28,0.34,0.46,0.59,0.54,0.74c0.02,0.04,0.03,0.08,0.02,0.1
		c-0.01,0.08-0.11,0.24-0.29,0.47c-0.18,0.24-0.39,0.48-0.62,0.74c-0.24,0.26-0.46,0.48-0.66,0.66c-0.13-0.1-0.28-0.22-0.45-0.37
		l-1.51-1.37c0.12-0.17,0.28-0.37,0.5-0.61c0.24-0.26,0.45-0.47,0.63-0.61c0.08-0.06,0.16-0.09,0.23-0.07
		c0.1,0.02,0.29,0.16,0.57,0.42l0.27-0.29l-0.81-0.7l-0.78-0.74l-0.27,0.29c0.21,0.2,0.35,0.35,0.42,0.47
		c0.02,0.04,0.04,0.09,0.03,0.12c-0.01,0.04-0.07,0.12-0.18,0.25c-0.3,0.35-0.47,0.55-0.53,0.61c-0.16,0.18-0.32,0.34-0.49,0.48
		l-0.74-0.67c-0.42-0.38-0.75-0.71-0.98-0.98c0.18-0.24,0.37-0.47,0.56-0.68c0.2-0.23,0.43-0.45,0.67-0.66
		c0.16-0.15,0.27-0.23,0.32-0.24c0.03-0.01,0.07,0,0.11,0.02c0.08,0.04,0.26,0.19,0.55,0.44l0.26-0.28
		c-0.29-0.3-0.46-0.47-0.49-0.51l-0.46-0.54l-0.07-0.01c-0.07,0.04-0.11,0.07-0.13,0.1c-0.25,0.26-0.41,0.43-0.49,0.51l-0.65,0.75
		c-0.36,0.41-0.68,0.78-0.98,1.11c-0.14,0.15-0.28,0.31-0.43,0.48l-0.75,0.84l0.28,0.26c0.26-0.26,0.44-0.41,0.53-0.45
		c0.04-0.01,0.07-0.01,0.1-0.01c0.09,0.03,0.26,0.16,0.54,0.4c0.42,0.35,0.66,0.56,0.72,0.61l1.62,1.47
		c0.19,0.17,0.48,0.45,0.87,0.85c0.22,0.22,0.37,0.38,0.46,0.48c-0.01,0.16-0.05,0.34-0.11,0.54l0.19,0.18
		C207.51,201.67,207.87,201.26,207.92,201.2"/>
</g>
</svg>
